<svg xmlns="http://www.w3.org/2000/svg" width="190.477" height="41.662" viewBox="0 0 190.477 41.662">
  <g id="Group_53" data-name="Group 53" transform="translate(11.872 -1322.238)">
    <g id="Group_6" data-name="Group 6" transform="translate(43.959 1337.812)">
      <g id="SVG" transform="translate(0.041 -2)">
        <path id="Path_18" data-name="Path 18" d="M188.516,598.8a6.013,6.013,0,0,1,1.495.189,1.623,1.623,0,0,0,.368.048,1.234,1.234,0,0,0,.776-.278,1.286,1.286,0,0,0,.531-1.066v-.029a1.23,1.23,0,0,0-1.029-1.3,8.653,8.653,0,1,0,0,16.774,1.244,1.244,0,0,0,1.029-1.307v-.021a1.264,1.264,0,0,0-.531-1.062,1.235,1.235,0,0,0-.776-.278,1.6,1.6,0,0,0-.367.041,6.429,6.429,0,0,1-1.5.177,5.945,5.945,0,1,1,0-11.89Z" transform="translate(-179.876 -596.094)" fill="#5c9d30" stroke="#5c9d30" stroke-miterlimit="10" stroke-width="0.75"/>
        <path id="Path_19" data-name="Path 19" d="M255.4,620.119a6.359,6.359,0,1,0,1.875,4.509,6.149,6.149,0,0,0-1.875-4.509Zm-1.918,7.135a3.676,3.676,0,1,1,.8-4A3.676,3.676,0,0,1,253.479,627.254Z" transform="translate(-231.256 -613.7)" fill="#5c9d30" stroke="#5c9d30" stroke-miterlimit="10" stroke-width="0.75"/>
        <path id="Path_20" data-name="Path 20" d="M326.284,596.507a1.323,1.323,0,0,0-.944-.387h-.033a1.346,1.346,0,0,0-1.34,1.34v4.322a5.413,5.413,0,0,0-3.667-1.109,6.38,6.38,0,1,0,6.38,6.414v-9.634a1.3,1.3,0,0,0-.395-.947Zm-3.394,13.171a3.675,3.675,0,1,1,.8-4A3.675,3.675,0,0,1,322.89,609.677Z" transform="translate(-286.347 -596.11)" fill="#5c9d30" stroke="#5c9d30" stroke-miterlimit="10" stroke-width="0.75"/>
        <path id="Path_21" data-name="Path 21" d="M397.267,625.464a1.276,1.276,0,0,0-1.095-.578,1.256,1.256,0,0,0-1.286.91,3.672,3.672,0,0,1-3.469,2.469,3.15,3.15,0,0,1-2.626-1.062q.543-.253,3.68-1.673l4.077-1.84a1.321,1.321,0,0,0,.661-1.78,6.38,6.38,0,1,0-2.07,7.837,6.123,6.123,0,0,0,2.292-3.06,1.377,1.377,0,0,0,.088-.475A1.235,1.235,0,0,0,397.267,625.464Zm-9.516-.864a3.655,3.655,0,0,1,3.667-3.68,3.122,3.122,0,0,1,2.528.977l-6.2,2.778Z" transform="translate(-342.822 -613.637)" fill="#5c9d30" stroke="#5c9d30" stroke-miterlimit="10" stroke-width="0.75"/>
        <path id="Path_22" data-name="Path 22" d="M461.911,618.555a1.3,1.3,0,0,0-.957-.4h-.627a4.715,4.715,0,0,0-3.459,1.428,4.84,4.84,0,0,0-1.428,3.455v6.536a1.247,1.247,0,0,0,.4.944,1.28,1.28,0,0,0,.94.4h.033a1.291,1.291,0,0,0,.944-.4,1.235,1.235,0,0,0,.4-.944v-6.534a2.163,2.163,0,0,1,.632-1.54,2.1,2.1,0,0,1,1.544-.632h.627a1.309,1.309,0,0,0,.957-.4,1.286,1.286,0,0,0,.387-.94v-.021a1.338,1.338,0,0,0-.391-.955Z" transform="translate(-398.742 -613.611)" fill="#5c9d30" stroke="#5c9d30" stroke-miterlimit="10" stroke-width="0.75"/>
        <path id="Path_23" data-name="Path 23" d="M776.058,619.794a.866.866,0,0,0,.078.074h0l3.461,3.665a1.015,1.015,0,0,0,1.475-1.4l-2.2-2.33a.922.922,0,0,1,.037-1.3l2.33-2.2a1.017,1.017,0,0,0-1.4-1.477l-3.741,3.536A1.029,1.029,0,0,0,776.058,619.794Z" transform="translate(-653.169 -610.768)" fill="#5c9d30" stroke="#5c9d30" stroke-miterlimit="10" stroke-width="0.75"/>
        <path id="Path_24" data-name="Path 24" d="M809.37,633.506a.893.893,0,0,1-.078.074h0l-3.461,3.665a1.015,1.015,0,1,1-1.475-1.4l2.206-2.338a.922.922,0,0,0-.037-1.3l-2.334-2.2a1.017,1.017,0,0,1,1.4-1.477l3.741,3.536A1.029,1.029,0,0,1,809.37,633.506Z" transform="translate(-675.489 -621.65)" fill="#0c0c0c" stroke="#0c0c0c" stroke-miterlimit="10" stroke-width="0.75"/>
        <path id="Path_25" data-name="Path 25" d="M507.888,604.443a4.278,4.278,0,0,0,1.428-3.482,4.877,4.877,0,0,0-4.89-4.882h-2.638a3.122,3.122,0,0,0-3.128,3.128v11.068a3.135,3.135,0,0,0,3.128,3.128h2.638a5.145,5.145,0,0,0,5.145-5.132A4.519,4.519,0,0,0,507.888,604.443Zm-6.511-5.235a.4.4,0,0,1,.411-.42h2.638a2.169,2.169,0,1,1,0,4.336l-3.052.012Zm4.762,10.781a2.357,2.357,0,0,1-1.719.7h-2.629a.385.385,0,0,1-.412-.412v-4.435h3.052a2.439,2.439,0,0,1,1.71,4.146Z" transform="translate(-433.069 -596.078)" fill="#0c0c0c" stroke="#0c0c0c" stroke-miterlimit="10" stroke-width="0.75"/>
        <path id="Path_26" data-name="Path 26" d="M571.866,620.151a6.38,6.38,0,1,0-4.513,10.907,4.806,4.806,0,0,0,3.671-1.34,1.247,1.247,0,0,0,.4.944,1.282,1.282,0,0,0,.94.4h.033a1.291,1.291,0,0,0,.944-.4,1.248,1.248,0,0,0,.4-.944v-5.052a6.156,6.156,0,0,0-1.879-4.514Zm-1.921,7.118a3.546,3.546,0,0,1-2.6,1.066,3.662,3.662,0,1,1,2.6-1.068Z" transform="translate(-482.572 -613.724)" fill="#0c0c0c" stroke="#0c0c0c" stroke-miterlimit="10" stroke-width="0.75"/>
        <path id="Path_27" data-name="Path 27" d="M644.621,602.5a6.153,6.153,0,0,0-4.513-1.875,5.37,5.37,0,0,0-3.671,1.109V597.41a1.346,1.346,0,0,0-1.344-1.34h-.029a1.346,1.346,0,0,0-1.344,1.34v9.631a6.38,6.38,0,1,0,10.907-4.55Zm-1.916,7.141a3.669,3.669,0,1,1,1.076-2.593,3.531,3.531,0,0,1-1.076,2.593Z" transform="translate(-540.335 -596.07)" fill="#0c0c0c" stroke="#0c0c0c" stroke-miterlimit="10" stroke-width="0.75"/>
        <path id="Path_28" data-name="Path 28" d="M715.294,618.58a1.248,1.248,0,0,0-.944-.4h-.021a1.365,1.365,0,0,0-1.352,1.352V625.6a2.645,2.645,0,0,1-5.289,0v-6.065a1.369,1.369,0,0,0-1.344-1.352h-.033a1.371,1.371,0,0,0-1.342,1.354V625.6a5.363,5.363,0,0,0,10.726,0v-6.067A1.3,1.3,0,0,0,715.294,618.58Z" transform="translate(-596.922 -613.629)" fill="#0c0c0c" stroke="#0c0c0c" stroke-miterlimit="10" stroke-width="0.75"/>
      </g>
    </g>
    <g id="Group_5" data-name="Group 5" transform="translate(-11.874 1322.237)">
      <path id="Path_29" data-name="Path 29" d="M348.674,350.491H346.91s-3.023-10.192-1.736-16.745c1.106-6,4.6-4.466,5.621-5.537,0,0-.315-1.071-3.3-1.344,0,0,1.89-2.2,6.637-1.2.778.147-.164-4.466,5.743-5.951,0,0-1.76,3.923-.837,3.7s4.478-5.664,19.766-3.592c0,0-2.082,1.461-1.757,2.236.426,1.3,12.622,1.585,17.41-3.273a22.869,22.869,0,0,1-3.61,8.848s9.577,2.309,2.6,22.7c0,0-2.156.317-1.988-.581s1.6-13.58-4.228-17.416c0,0-17.641,11.593-34.384,3.416C352.846,335.762,348.127,337.26,348.674,350.491Z" transform="translate(-344.854 -318.79)" fill="#0c0c0c"/>
      <path id="Path_30" data-name="Path 30" d="M512.835,474.414h11.157V472.06H512.835a3.029,3.029,0,0,0-3.023,3.023V485.54a3.027,3.027,0,0,0,3.023,3.023h11.157v-2.35H512.835a.671.671,0,0,1-.673-.673V475.084A.674.674,0,0,1,512.835,474.414Z" transform="translate(-482.746 -446.912)" fill="#0c0c0c"/>
      <path id="Path_31" data-name="Path 31" d="M606.407,479.6v1.447a.363.363,0,0,1-.363.363h-.984a.9.9,0,0,0-.9.9v3h-.084v.249a3.027,3.027,0,0,1-3.023,3.023h-1.008v-2.359h1.008a.671.671,0,0,0,.673-.673V482a1.68,1.68,0,1,0,0-3.36v-3.657a.564.564,0,0,0-.564-.564h-1.115V472.06h1.117a2.924,2.924,0,0,1,2.916,2.916v.356h.084v2.991a.9.9,0,0,0,.9.9h.984a.362.362,0,0,1,.359.376Z" transform="translate(-558.176 -446.912)" fill="#5c9d30"/>
      <circle id="Ellipse_9" data-name="Ellipse 9" cx="2.897" cy="2.897" r="2.897" transform="translate(33.391 30.651)" fill="#0c0c0c"/>
      <circle id="Ellipse_10" data-name="Ellipse 10" cx="1.009" cy="1.009" r="1.009" transform="translate(36.961 30.512)" fill="#fefefe"/>
      <path id="Path_32" data-name="Path 32" d="M413.09,475.1v10.456a.671.671,0,0,1-.673.673H401.26v2.353h11.157a3.027,3.027,0,0,0,3.023-3.023V475.1a3.029,3.029,0,0,0-3.023-3.023H401.26v2.349h11.157A.674.674,0,0,1,413.09,475.1Z" transform="translate(-392.005 -446.922)" fill="#0c0c0c"/>
      <path id="Path_33" data-name="Path 33" d="M358.689,479.6v1.447a.363.363,0,0,0,.363.363h.984a.9.9,0,0,1,.9.9v3h.084v.249a3.027,3.027,0,0,0,3.023,3.023h1.008v-2.359h-1.008a.671.671,0,0,1-.673-.673V482a1.68,1.68,0,0,1,.007-3.36v-3.657a.564.564,0,0,1,.564-.564h1.117V472.06h-1.117a2.924,2.924,0,0,0-2.916,2.916v.356h-.084v2.991a.9.9,0,0,1-.9.9h-.984a.363.363,0,0,0-.363.376Z" transform="translate(-356.418 -446.912)" fill="#5c9d30"/>
      <circle id="Ellipse_11" data-name="Ellipse 11" cx="2.897" cy="2.897" r="2.897" transform="translate(11.318 30.651)" fill="#0c0c0c"/>
      <circle id="Ellipse_12" data-name="Ellipse 12" cx="1.009" cy="1.009" r="1.009" transform="translate(11.524 30.512)" fill="#fefefe"/>
      <rect id="Rectangle_4" data-name="Rectangle 4" width="5.422" height="1.933" transform="translate(22.07 32.498)" fill="#0c0c0c"/>
    </g>
  </g>
</svg>
