<svg width="70" height="70" viewBox="0 0 70 70" fill="none" xmlns="http://www.w3.org/2000/svg">
<path d="M39.0936 56.3632L43.0416 68.6271L27.1797 68.4031L30.1057 56.8112L39.0936 56.3632Z" fill="#FFDA44"/>
<path d="M64.4769 1.60974H5.76117C3.47251 1.60974 1.61719 3.46507 1.61719 5.75372V43.5536C1.61719 45.8422 3.47251 47.6975 5.76117 47.6975H64.4769C66.7656 47.6975 68.6209 45.8422 68.6209 43.5536V5.75372C68.6209 3.46507 66.7656 1.60974 64.4769 1.60974Z" fill="#D7DEE2"/>
<path d="M68.6209 9.80017H1.61719V47.698H68.6209V9.80017Z" fill="white"/>
<path d="M64.4769 47.6975H5.76117C3.47251 47.6975 1.61719 49.5528 1.61719 51.8415V52.1075C1.61719 54.3962 3.47251 56.2515 5.76117 56.2515H64.4769C66.7656 56.2515 68.6209 54.3962 68.6209 52.1075V51.8415C68.6209 49.5528 66.7656 47.6975 64.4769 47.6975Z" fill="#FFDA44"/>
<path d="M64.4837 57.7778H5.51598C4.05305 57.7778 2.65004 57.1966 1.61559 56.1622C0.581146 55.1277 0 53.7247 0 52.2618V48.2298C0 47.8585 0.147499 47.5024 0.410049 47.2398C0.672599 46.9773 1.02869 46.8298 1.39999 46.8298H68.5997C68.971 46.8298 69.3271 46.9773 69.5896 47.2398C69.8522 47.5024 69.9997 47.8585 69.9997 48.2298V52.2618C69.9997 53.7247 69.4185 55.1277 68.3841 56.1622C67.3497 57.1966 65.9466 57.7778 64.4837 57.7778ZM2.79999 49.6298V52.2618C2.79999 52.9821 3.08614 53.6729 3.59548 54.1823C4.10483 54.6916 4.79565 54.9778 5.51598 54.9778H64.4837C64.8404 54.9778 65.1936 54.9075 65.5231 54.771C65.8526 54.6345 66.152 54.4345 66.4042 54.1823C66.6564 53.9301 66.8565 53.6307 66.993 53.3011C67.1295 52.9716 67.1997 52.6184 67.1997 52.2618V49.6298H2.79999ZM68.5997 33.9499C68.2284 33.9499 67.8723 33.8024 67.6098 33.5398C67.3472 33.2773 67.1997 32.9212 67.1997 32.5499V5.51598C67.1997 4.79565 66.9136 4.10483 66.4042 3.59548C65.8949 3.08614 65.204 2.79999 64.4837 2.79999H5.51598C4.79565 2.79999 4.10483 3.08614 3.59548 3.59548C3.08614 4.10483 2.79999 4.79565 2.79999 5.51598V9.79996C2.79999 10.1713 2.65249 10.5274 2.38994 10.7899C2.12739 11.0525 1.7713 11.2 1.39999 11.2C1.02869 11.2 0.672599 11.0525 0.410049 10.7899C0.147499 10.5274 0 10.1713 0 9.79996V5.51598C0.0216836 4.0598 0.609791 2.66936 1.63957 1.63957C2.66936 0.609791 4.0598 0.0216836 5.51598 0H64.4837C65.9399 0.0216836 67.3303 0.609791 68.3601 1.63957C69.3899 2.66936 69.978 4.0598 69.9997 5.51598V32.5499C69.9997 32.9212 69.8522 33.2773 69.5896 33.5398C69.3271 33.8024 68.971 33.9499 68.5997 33.9499Z" fill="#7C30B7"/>
<path d="M68.5997 49.6298H1.39999C1.02869 49.6298 0.672599 49.4823 0.410049 49.2197C0.147499 48.9572 0 48.6011 0 48.2298V20.7059C0 20.3346 0.147499 19.9785 0.410049 19.716C0.672599 19.4534 1.02869 19.3059 1.39999 19.3059C1.7713 19.3059 2.12739 19.4534 2.38994 19.716C2.65249 19.9785 2.79999 20.3346 2.79999 20.7059V46.8298H67.1997V42.5038C67.1997 42.1325 67.3472 41.7764 67.6098 41.5139C67.8723 41.2513 68.2284 41.1038 68.5997 41.1038C68.971 41.1038 69.3271 41.2513 69.5896 41.5139C69.8522 41.7764 69.9997 42.1325 69.9997 42.5038V48.2298C69.9997 48.6011 69.8522 48.9572 69.5896 49.2197C69.3271 49.4823 68.971 49.6298 68.5997 49.6298ZM43.1478 69.9997H26.8519C26.6345 69.9997 26.4202 69.9491 26.2258 69.8519C26.0314 69.7547 25.8623 69.6136 25.7319 69.4397C25.6036 69.2674 25.5167 69.068 25.4779 68.8568C25.439 68.6456 25.4493 68.4283 25.5079 68.2217L28.9939 55.9997C29.0786 55.6969 29.2627 55.4314 29.5167 55.246C29.7707 55.0606 30.0796 54.9661 30.3939 54.9778H39.7178C40.0321 54.9661 40.341 55.0606 40.595 55.246C40.849 55.4314 41.0331 55.6969 41.1178 55.9997L42.2938 60.0877C42.3959 60.446 42.3515 60.8302 42.1704 61.1558C41.9892 61.4814 41.6861 61.7216 41.3278 61.8237C40.9695 61.9258 40.5853 61.8814 40.2598 61.7003C39.9342 61.5191 39.6939 61.216 39.5918 60.8577L38.7238 57.7777H31.3879L28.7139 67.1997H41.3138L40.8098 65.3937C40.7583 65.2172 40.7421 65.0323 40.7621 64.8495C40.7821 64.6668 40.8379 64.4898 40.9263 64.3286C41.1048 64.003 41.4054 63.7617 41.7618 63.6577C41.9392 63.6065 42.125 63.5909 42.3085 63.6118C42.492 63.6327 42.6695 63.6896 42.8308 63.7794C42.9922 63.8692 43.1342 63.99 43.2487 64.1349C43.3631 64.2798 43.4478 64.446 43.4978 64.6237L44.5198 68.2217C44.5784 68.4283 44.5886 68.6456 44.5498 68.8568C44.511 69.068 44.4241 69.2674 44.2958 69.4397C44.1626 69.6174 43.989 69.7609 43.7894 69.8582C43.5898 69.9556 43.3699 70.0041 43.1478 69.9997Z" fill="#7C30B7"/>
<path d="M19.7789 5.16602H6.84299C6.17031 5.16602 5.625 5.71133 5.625 6.38401V6.39801C5.625 7.07069 6.17031 7.61601 6.84299 7.61601H19.7789C20.4516 7.61601 20.9969 7.07069 20.9969 6.39801V6.38401C20.9969 5.71133 20.4516 5.16602 19.7789 5.16602Z" fill="white"/>
<g clip-path="url(#clip0_998_155)">
<path d="M12.9531 26.0001C14.0571 26.0001 14.9531 25.1041 14.9531 24.0001V22.0001H12.9531C11.8491 22.0001 10.9531 22.8961 10.9531 24.0001C10.9531 25.1041 11.8491 26.0001 12.9531 26.0001Z" fill="#0ACF83"/>
<path d="M10.9531 19.9999C10.9531 18.8959 11.8491 17.9999 12.9531 17.9999H14.9531V21.9999H12.9531C11.8491 21.9999 10.9531 21.1039 10.9531 19.9999Z" fill="#A259FF"/>
<path d="M10.9531 16C10.9531 14.896 11.8491 14 12.9531 14H14.9531V18H12.9531C11.8491 18 10.9531 17.104 10.9531 16Z" fill="#F24E1E"/>
<path d="M14.9531 14H16.9531C18.0571 14 18.9531 14.896 18.9531 16C18.9531 17.104 18.0571 18 16.9531 18H14.9531V14Z" fill="#FF7262"/>
<path d="M18.9531 19.9999C18.9531 21.1039 18.0571 21.9999 16.9531 21.9999C15.8491 21.9999 14.9531 21.1039 14.9531 19.9999C14.9531 18.8959 15.8491 17.9999 16.9531 17.9999C18.0571 17.9999 18.9531 18.8959 18.9531 19.9999Z" fill="#1ABCFE"/>
</g>
<path d="M31.125 14.1511H38.875C40.05 14.1511 41 15.1011 41 16.2761V23.7261C41 24.9011 40.05 25.8511 38.875 25.8511H31.125C29.95 25.8511 29 24.9011 29 23.7261V16.2761C29 15.1011 29.95 14.1511 31.125 14.1511Z" fill="#001E36"/>
<path d="M31.7031 22.3562V17.2112C31.7031 17.1762 31.7181 17.1562 31.7531 17.1562C31.8381 17.1562 31.9181 17.1562 32.0331 17.1512C32.1531 17.1462 32.2781 17.1462 32.4131 17.1412C32.5481 17.1362 32.6931 17.1362 32.8481 17.1312C33.0031 17.1262 33.1531 17.1262 33.3031 17.1262C33.7131 17.1262 34.0531 17.1762 34.3331 17.2812C34.5831 17.3662 34.8131 17.5062 35.0031 17.6912C35.1631 17.8512 35.2881 18.0462 35.3681 18.2612C35.4431 18.4712 35.4831 18.6862 35.4831 18.9112C35.4831 19.3412 35.3831 19.6962 35.1831 19.9762C34.9831 20.2562 34.7031 20.4662 34.3781 20.5862C34.0381 20.7112 33.6631 20.7562 33.2531 20.7562C33.1331 20.7562 33.0531 20.7562 33.0031 20.7512C32.9531 20.7462 32.8831 20.7462 32.7881 20.7462V22.3512C32.7931 22.3862 32.7681 22.4162 32.7331 22.4212H31.7631C31.7231 22.4212 31.7031 22.4012 31.7031 22.3562ZM32.7931 18.1212V19.8012C32.8631 19.8062 32.9281 19.8112 32.9881 19.8112H33.2531C33.4481 19.8112 33.6431 19.7812 33.8281 19.7212C33.9881 19.6762 34.1281 19.5812 34.2381 19.4562C34.3431 19.3312 34.3931 19.1612 34.3931 18.9412C34.3981 18.7862 34.3581 18.6312 34.2781 18.4962C34.1931 18.3662 34.0731 18.2662 33.9281 18.2112C33.7431 18.1362 33.5431 18.1062 33.3381 18.1112C33.2081 18.1112 33.0931 18.1112 32.9981 18.1162C32.8981 18.1112 32.8281 18.1162 32.7931 18.1212ZM38.6031 19.4962C38.4531 19.4162 38.2931 19.3612 38.1231 19.3262C37.9381 19.2862 37.7531 19.2612 37.5631 19.2612C37.4631 19.2562 37.3581 19.2712 37.2631 19.2962C37.1981 19.3112 37.1431 19.3462 37.1081 19.3962C37.0831 19.4362 37.0681 19.4862 37.0681 19.5312C37.0681 19.5762 37.0881 19.6212 37.1181 19.6612C37.1631 19.7162 37.2231 19.7612 37.2881 19.7962C37.4031 19.8562 37.5231 19.9112 37.6431 19.9612C37.9131 20.0512 38.1731 20.1762 38.4131 20.3262C38.5781 20.4312 38.7131 20.5712 38.8081 20.7412C38.8881 20.9012 38.9281 21.0762 38.9231 21.2562C38.9281 21.4912 38.8581 21.7262 38.7281 21.9212C38.5881 22.1212 38.3931 22.2762 38.1681 22.3662C37.9231 22.4712 37.6231 22.5262 37.2631 22.5262C37.0331 22.5262 36.8081 22.5062 36.5831 22.4612C36.4081 22.4312 36.2331 22.3762 36.0731 22.3012C36.0381 22.2812 36.0131 22.2462 36.0181 22.2062V21.3362C36.0181 21.3212 36.0231 21.3012 36.0381 21.2912C36.0531 21.2812 36.0681 21.2862 36.0831 21.2962C36.2781 21.4112 36.4831 21.4912 36.7031 21.5412C36.8931 21.5912 37.0931 21.6162 37.2931 21.6162C37.4831 21.6162 37.6181 21.5912 37.7081 21.5462C37.7881 21.5112 37.8431 21.4262 37.8431 21.3362C37.8431 21.2662 37.8031 21.2012 37.7231 21.1362C37.6431 21.0712 37.4781 20.9962 37.2331 20.9012C36.9781 20.8112 36.7431 20.6912 36.5231 20.5412C36.3681 20.4312 36.2381 20.2862 36.1431 20.1162C36.0631 19.9562 36.0231 19.7812 36.0281 19.6062C36.0281 19.3912 36.0881 19.1862 36.1981 19.0012C36.3231 18.8012 36.5081 18.6412 36.7231 18.5412C36.9581 18.4212 37.2531 18.3662 37.6081 18.3662C37.8131 18.3662 38.0231 18.3812 38.2281 18.4112C38.3781 18.4312 38.5231 18.4712 38.6581 18.5262C38.6781 18.5312 38.6981 18.5512 38.7081 18.5712C38.7131 18.5912 38.7181 18.6112 38.7181 18.6312V19.4462C38.7181 19.4662 38.7081 19.4862 38.6931 19.4962C38.6481 19.5062 38.6231 19.5062 38.6031 19.4962Z" fill="#31A8FF"/>
<path d="M51.125 14.1511H58.875C60.05 14.1511 61 15.1011 61 16.2761V23.7261C61 24.9011 60.05 25.8511 58.875 25.8511H51.125C49.95 25.8511 49 24.9011 49 23.7261V16.2761C49 15.1011 49.95 14.1511 51.125 14.1511Z" fill="#470137"/>
<path d="M55.312 17.2262L53.812 19.7012L55.412 22.3262C55.422 22.3462 55.427 22.3662 55.422 22.3862C55.417 22.4062 55.397 22.3912 55.367 22.3962H54.222C54.142 22.3962 54.087 22.3912 54.052 22.3412C53.947 22.1312 53.837 21.9262 53.732 21.7162C53.627 21.5112 53.512 21.3012 53.392 21.0862C53.272 20.8712 53.152 20.6562 53.032 20.4362H53.022C52.917 20.6512 52.802 20.8662 52.687 21.0812C52.572 21.2962 52.457 21.5112 52.347 21.7212C52.232 21.9312 52.117 22.1462 52.002 22.3512C51.982 22.4012 51.942 22.4062 51.887 22.4062H50.787C50.767 22.4062 50.752 22.4162 50.752 22.3912C50.747 22.3712 50.752 22.3512 50.762 22.3362L52.317 19.7862L50.802 17.2212C50.787 17.2012 50.782 17.1812 50.792 17.1712C50.802 17.1562 50.822 17.1512 50.842 17.1512H51.977C52.002 17.1512 52.027 17.1562 52.047 17.1612C52.067 17.1712 52.082 17.1862 52.097 17.2062C52.192 17.4212 52.302 17.6362 52.417 17.8512C52.537 18.0662 52.652 18.2762 52.777 18.4862C52.897 18.6962 53.007 18.9062 53.112 19.1212H53.122C53.227 18.9012 53.337 18.6862 53.447 18.4762C53.557 18.2662 53.672 18.0562 53.787 17.8462C53.902 17.6362 54.012 17.4212 54.122 17.2162C54.127 17.1962 54.137 17.1762 54.152 17.1662C54.172 17.1562 54.192 17.1512 54.217 17.1562H55.272C55.297 17.1512 55.322 17.1662 55.327 17.1912C55.332 17.1962 55.322 17.2162 55.312 17.2262ZM57.622 22.5012C57.252 22.5062 56.882 22.4312 56.547 22.2762C56.232 22.1312 55.972 21.8912 55.792 21.5962C55.607 21.2912 55.517 20.9112 55.517 20.4562C55.512 20.0862 55.607 19.7212 55.792 19.4012C55.982 19.0762 56.257 18.8062 56.587 18.6262C56.937 18.4312 57.357 18.3362 57.852 18.3362C57.877 18.3362 57.912 18.3362 57.957 18.3412C58.002 18.3462 58.052 18.3462 58.112 18.3512V16.7712C58.112 16.7362 58.127 16.7162 58.162 16.7162H59.177C59.202 16.7112 59.222 16.7312 59.227 16.7512V21.5212C59.227 21.6112 59.232 21.7112 59.237 21.8212C59.247 21.9262 59.252 22.0262 59.257 22.1112C59.257 22.1462 59.242 22.1762 59.207 22.1912C58.947 22.3012 58.672 22.3812 58.392 22.4312C58.137 22.4762 57.882 22.5012 57.622 22.5012ZM58.112 21.5012V19.3012C58.067 19.2912 58.022 19.2812 57.977 19.2762C57.922 19.2712 57.867 19.2662 57.812 19.2662C57.617 19.2662 57.422 19.3062 57.247 19.3962C57.077 19.4812 56.932 19.6062 56.822 19.7662C56.712 19.9262 56.657 20.1412 56.657 20.4012C56.652 20.5762 56.682 20.7512 56.742 20.9162C56.792 21.0512 56.867 21.1712 56.967 21.2712C57.062 21.3612 57.177 21.4312 57.307 21.4712C57.442 21.5162 57.582 21.5362 57.722 21.5362C57.797 21.5362 57.867 21.5312 57.932 21.5262C57.997 21.5312 58.052 21.5212 58.112 21.5012Z" fill="#FF61F6"/>
<path d="M19.9122 31H10.0878C9.48703 31 9 31.487 9 32.0878V41.9122C9 42.513 9.48703 43 10.0878 43H19.9122C20.513 43 21 42.513 21 41.9122V32.0878C21 31.487 20.513 31 19.9122 31Z" fill="#DC395F"/>
<path d="M13.0093 34.7756C13.4082 34.7756 13.7424 34.4629 13.7424 34.0532C13.7424 33.6437 13.4082 33.3311 13.0093 33.3311C12.6104 33.3311 12.2763 33.6437 12.2763 34.0532C12.2763 34.4629 12.6104 34.7756 13.0093 34.7756ZM11.4893 38.6437C11.4463 38.827 11.4246 39.0249 11.4246 39.1864C11.4246 39.8225 11.7696 40.2448 12.5027 40.2448C13.1106 40.2448 13.6035 39.8838 13.9584 39.3008L13.7417 40.1704H14.949L15.639 37.403C15.8115 36.7023 16.1457 36.3386 16.6524 36.3386C17.0512 36.3386 17.2992 36.5867 17.2992 36.9962C17.2992 37.1148 17.2884 37.244 17.2453 37.3842L16.8895 38.6563C16.8356 38.8396 16.8141 39.0229 16.8141 39.1953C16.8141 39.7992 17.1697 40.2409 17.9136 40.2409C18.5496 40.2409 19.0563 39.8314 19.3366 38.8504L18.8623 38.6673C18.6251 39.3245 18.4203 39.4434 18.2585 39.4434C18.0968 39.4434 18.0106 39.3356 18.0106 39.1202C18.0106 39.0231 18.0322 38.9155 18.0645 38.7858L18.4095 37.5465C18.4957 37.2555 18.5281 36.9975 18.5281 36.7604C18.5281 35.8333 17.9675 35.3494 17.2884 35.3494C16.6524 35.3494 16.0055 35.9231 15.6822 36.5269L15.9193 35.4432H14.0759L13.8172 36.3978H14.6796L14.1485 38.524C13.7315 39.4511 12.9654 39.4661 12.8693 39.4446C12.7114 39.409 12.6104 39.3491 12.6104 39.1439C12.6104 39.0256 12.632 38.8556 12.6859 38.6506L13.4945 35.4432H11.4463L11.1875 36.3978H12.0391L11.4894 38.6437" fill="white"/>
<g clip-path="url(#clip1_998_155)">
<path d="M30.8486 39.2136L30.2209 39.443L30.1875 41.3102L32.3603 40.5164C31.6145 40.2666 31.0705 39.8264 30.8486 39.2136Z" fill="#FDBD39"/>
<path d="M31.1783 37.2386L29 38.0344L30.222 39.4434L30.8498 39.2141C30.6284 38.6033 30.765 37.9137 31.1783 37.2386Z" fill="#F69833"/>
<path d="M34.8412 34.544C32.0676 35.5572 30.2791 37.6482 30.8475 39.2138L40.8916 35.5447C40.3232 33.9791 37.6149 33.5309 34.8412 34.544Z" fill="#FECF33"/>
<path d="M36.9019 40.2147C39.6756 39.2016 41.467 37.12 40.8956 35.5449L30.8516 39.2135C31.4229 40.7891 34.1283 41.2278 36.9019 40.2147Z" fill="#EE6723"/>
<path d="M40.8951 35.5446L30.8516 39.2137C31.048 39.7561 31.7984 40.0234 32.8504 40.0234C33.8765 40.0234 35.1898 39.7696 36.5589 39.2695C39.3325 38.2564 41.2835 36.6155 40.8951 35.5446Z" fill="#F69833"/>
<path d="M38.8909 34.7351C37.8653 34.7351 36.5515 34.9889 35.1824 35.489C32.4087 36.5021 30.4577 38.1425 30.8461 39.2134L40.8902 35.5443C40.6932 35.0019 39.9434 34.7351 38.8909 34.7351Z" fill="#FDBD39"/>
<path d="M38.3382 41.4096C38.0425 41.4096 37.6067 41.1428 37.0423 40.6163C36.3747 39.9936 35.6104 39.0812 34.8889 38.0476C34.168 37.014 33.5757 35.9809 33.2207 35.1378C32.8343 34.2194 32.7789 33.655 33.0566 33.4596C33.1209 33.4157 33.1972 33.3933 33.275 33.3953C33.5009 33.3953 33.9416 33.5633 34.7558 34.365L34.7738 34.3825L34.7713 34.4074C34.7658 34.4652 34.7608 34.5231 34.7563 34.5804L34.7473 34.6936L34.6676 34.6133C33.7901 33.7293 33.4041 33.6341 33.2785 33.6341C33.2426 33.6341 33.2142 33.6411 33.1937 33.6555C33.0731 33.7403 33.0651 34.1551 33.44 35.0451C33.7886 35.8727 34.3724 36.8904 35.0839 37.9105C35.7959 38.9311 36.5487 39.8295 37.2049 40.4413C37.9119 41.1009 38.2305 41.1722 38.3347 41.1722C38.3706 41.1722 38.3995 41.1647 38.4214 41.1493C38.5486 41.06 38.5486 40.6158 38.1308 39.6575L38.1113 39.6136L38.1532 39.5907C38.1951 39.5678 38.236 39.5453 38.2738 39.5234L38.3242 39.495L38.3476 39.5478C38.6438 40.2269 38.921 41.09 38.5575 41.3452C38.4932 41.3891 38.4164 41.4116 38.3382 41.4096ZM38.3382 41.3049V41.3572V41.3049Z" fill="#EE6723"/>
<path d="M36.9651 40.186L36.9611 40.2378C36.8908 41.1054 36.7063 42.1484 36.2247 42.1908C36.2147 42.1918 36.2047 42.1918 36.1953 42.1918C35.8682 42.1918 35.5586 41.7231 35.2759 40.7992C35.0076 39.9247 34.7997 38.751 34.6905 37.4941C34.5808 36.2372 34.5823 35.045 34.695 34.1371C34.8177 33.1479 35.051 32.6314 35.3891 32.6015C35.399 32.6005 35.4095 32.6 35.4195 32.6C35.6568 32.6 36.0143 32.8687 36.3802 34.1202L36.1414 34.166C36.0193 33.7482 35.8861 33.4082 35.754 33.1738C35.6319 32.958 35.5127 32.8388 35.4195 32.8388C35.4165 32.8388 35.4135 32.8388 35.41 32.8393C35.2634 32.8523 35.05 33.2073 34.9314 34.1665C34.8207 35.058 34.8192 36.2327 34.9274 37.4732C35.0356 38.7142 35.24 39.8704 35.5032 40.7289C35.6209 41.1134 35.75 41.4305 35.8772 41.6453C35.9938 41.8438 36.107 41.953 36.1953 41.953C36.1983 41.953 36.2013 41.953 36.2042 41.9525C36.3443 41.9405 36.6086 41.5706 36.7198 40.2697L36.9651 40.186Z" fill="#EE6723"/>
</g>
<path fill-rule="evenodd" clip-rule="evenodd" d="M51.4398 35.3118L54.989 42.9862L49.0234 35.3118H51.4398Z" fill="#EA6C00"/>
<path fill-rule="evenodd" clip-rule="evenodd" d="M58.5367 35.3118L54.9875 42.9862L60.9531 35.3118H58.5367Z" fill="#EA6C00"/>
<path fill-rule="evenodd" clip-rule="evenodd" d="M51.4375 35.3118H58.536L54.9867 42.9862L51.4375 35.3118Z" fill="#FDAD00"/>
<path fill-rule="evenodd" clip-rule="evenodd" d="M54.9867 31.0586L51.6243 31.4512L51.4375 35.3118L54.9867 31.0586Z" fill="#FDD231"/>
<path fill-rule="evenodd" clip-rule="evenodd" d="M54.9898 31.0586L58.3523 31.4512L58.5391 35.3118L54.9898 31.0586Z" fill="#FDD231"/>
<path fill-rule="evenodd" clip-rule="evenodd" d="M60.9531 35.3118L58.3499 31.4513L58.5367 35.3118H60.9531Z" fill="#FDAD00"/>
<path fill-rule="evenodd" clip-rule="evenodd" d="M49.0234 35.3118L51.6266 31.4513L51.4398 35.3118H49.0234Z" fill="#FDAD00"/>
<path fill-rule="evenodd" clip-rule="evenodd" d="M54.9867 31.0586L51.4375 35.3118H58.536L54.9867 31.0586Z" fill="#FEEEB7"/>
<path d="M32.25 5.75C32.25 6.44036 31.6904 7 31 7C30.3096 7 29.75 6.44036 29.75 5.75C29.75 5.05964 30.3096 4.5 31 4.5C31.6904 4.5 32.25 5.05964 32.25 5.75Z" fill="#7C30B7"/>
<defs>
<clipPath id="clip0_998_155">
<rect width="12" height="12" fill="white" transform="translate(9 14)"/>
</clipPath>
<clipPath id="clip1_998_155">
<rect width="12" height="12" fill="white" transform="translate(29 31)"/>
</clipPath>
</defs>
</svg>