<svg width="64" height="70" viewBox="0 0 64 70" fill="none" xmlns="http://www.w3.org/2000/svg">
<g clip-path="url(#clip0_998_176)">
<rect x="-7" y="50" width="76.5011" height="33.9239" rx="16.9619" transform="rotate(-44.8441 -7 50)" fill="#7C30B7" fill-opacity="0.3"/>
<path d="M39.5847 63.469L38.7214 56.3926V56.1863L38.544 54.8268C38.5091 54.5308 38.3693 54.2583 38.1511 54.0612C37.933 53.8642 37.6518 53.7565 37.3613 53.7587H25.5342C25.2437 53.7565 24.9625 53.8642 24.7443 54.0612C24.5262 54.2583 24.3864 54.5308 24.3515 54.8268L24.1978 56.1863L23.3107 63.469L23.1806 64.5372C23.1604 64.7066 23.1753 64.8785 23.2242 65.0416C23.2731 65.2047 23.355 65.3555 23.4645 65.4839C23.5753 65.6134 23.7117 65.7171 23.8647 65.7883C24.0176 65.8595 24.1836 65.8964 24.3515 65.8966H38.544C38.7119 65.8964 38.8778 65.8595 39.0308 65.7883C39.1837 65.7171 39.3202 65.6134 39.431 65.4839C39.5405 65.3555 39.6224 65.2047 39.6713 65.0416C39.7202 64.8785 39.735 64.7066 39.7148 64.5372L39.5847 63.469ZM25.688 63.469L26.575 56.1863H36.3205L36.6043 58.6139L37.2075 63.469H25.688Z" fill="#7C30B7"/>
<rect x="6.61719" y="17.3448" width="49.6552" height="37.5172" rx="5" fill="white"/>
<path d="M56.199 39.6085H43.2335C42.2957 39.6085 41.3963 39.2392 40.7331 38.5819C40.07 37.9245 39.6974 37.033 39.6974 36.1034V26.7565C39.6974 25.8269 40.07 24.9354 40.7331 24.2781C41.3963 23.6208 42.2957 23.2515 43.2335 23.2515H55.7865C55.9755 23.2525 56.1619 23.2084 56.3301 23.123C56.4983 23.0376 56.6434 22.9134 56.753 22.7608C56.8605 22.6076 56.9294 22.4312 56.954 22.2462C56.9787 22.0612 56.9582 21.8731 56.8944 21.6976C56.8017 21.4298 56.6914 21.1683 56.5644 20.9148C55.8965 19.519 54.8435 18.3394 53.5272 17.5123C52.211 16.6852 50.6853 16.2445 49.1269 16.2413H25.5532C25.2406 16.2413 24.9408 16.3644 24.7198 16.5835C24.4987 16.8026 24.3746 17.0998 24.3746 17.4097V20.0969C24.3868 20.1861 24.3868 20.2765 24.3746 20.3656C24.3517 20.5048 24.3162 20.6417 24.2685 20.7746C24.2685 20.8797 24.1978 20.9849 24.1506 21.09C24.1035 21.1952 24.0917 21.2302 24.0681 21.2886L23.9384 21.5223C23.7277 21.874 23.4564 22.1864 23.1369 22.4453L22.9012 22.6206C22.7508 22.7213 22.5932 22.8111 22.4297 22.8893L22.2647 22.9594L21.9465 23.0762C21.8592 23.1102 21.7682 23.1337 21.6754 23.1463C21.5365 23.1829 21.3944 23.2064 21.251 23.2164L20.8385 23.2515H6.69431C6.3817 23.2515 6.0819 23.3746 5.86085 23.5937C5.63981 23.8128 5.51562 24.11 5.51562 24.4198V47.787C5.51562 49.956 6.3849 52.0363 7.93222 53.57C9.47955 55.1038 11.5782 55.9655 13.7664 55.9655H49.1269C51.3152 55.9655 53.4138 55.1038 54.9611 53.57C56.5084 52.0363 57.3777 49.956 57.3777 47.787V40.7768C57.3777 40.467 57.2535 40.1698 57.0325 39.9507C56.8114 39.7316 56.5116 39.6085 56.199 39.6085ZM55.0203 47.787C55.0203 48.5541 54.8679 49.3138 54.5717 50.0225C54.2755 50.7313 53.8414 51.3753 53.2942 51.9177C52.7469 52.4602 52.0972 52.8905 51.3822 53.1841C50.6672 53.4776 49.9008 53.6288 49.1269 53.6288H13.7664C12.9925 53.6288 12.2261 53.4776 11.5111 53.1841C10.7961 52.8905 10.1464 52.4602 9.59913 51.9177C9.05188 51.3753 8.61777 50.7313 8.3216 50.0225C8.02543 49.3138 7.87299 48.5541 7.87299 47.787V25.5882H20.8385C21.0505 25.5998 21.263 25.5998 21.475 25.5882H21.7697C21.9171 25.5733 22.063 25.546 22.2058 25.5064H22.359C22.5672 25.4526 22.7719 25.3862 22.9719 25.3078C23.1906 25.225 23.4032 25.1274 23.6084 25.0157C23.8054 24.9127 23.9945 24.7955 24.1742 24.6652C24.3569 24.5459 24.5303 24.4131 24.6928 24.2679L24.7753 24.1862C24.8899 24.0941 24.9964 23.9924 25.0936 23.8824C25.1862 23.7906 25.2728 23.693 25.3529 23.5903C25.4589 23.4735 25.5532 23.3333 25.6593 23.2047L25.7536 23.0645L25.9658 22.7023C26.0237 22.6087 26.0749 22.5111 26.119 22.4103C26.119 22.2934 26.2251 22.1766 26.2722 22.0597C26.4193 21.7025 26.526 21.3303 26.5905 20.9498C26.6216 20.8272 26.6413 20.7021 26.6494 20.5759C26.703 20.3026 26.7307 20.0249 26.7319 19.7464V18.578H49.1269C50.0418 18.578 50.9442 18.7892 51.7625 19.1948C52.5809 19.6004 53.2927 20.1892 53.8416 20.9148H43.2335C41.6705 20.9148 40.1714 21.5302 39.0662 22.6258C37.961 23.7213 37.3401 25.2072 37.3401 26.7565V36.1034C37.3401 37.6527 37.961 39.1386 39.0662 40.2342C40.1714 41.3297 41.6705 41.9452 43.2335 41.9452H55.0203V47.787Z" fill="#7C30B7"/>
<path d="M43.2335 64.6705C43.2335 64.9957 43.1093 65.3076 42.8883 65.5375C42.6672 65.7674 42.3674 65.8966 42.0548 65.8966H20.8385C20.5259 65.8966 20.2261 65.7674 20.0051 65.5375C19.784 65.3076 19.6598 64.9957 19.6598 64.6705C19.6598 64.3454 19.784 64.0335 20.0051 63.8036C20.2261 63.5737 20.5259 63.4445 20.8385 63.4445H42.0548C42.3674 63.4445 42.6672 63.5737 42.8883 63.8036C43.1093 64.0335 43.2335 64.3454 43.2335 64.6705ZM56.199 46.2797H6.69431C6.3817 46.2797 6.0819 46.1506 5.86085 45.9206C5.63981 45.6907 5.51562 45.3789 5.51562 45.0537C5.51562 44.7285 5.63981 44.4167 5.86085 44.1867C6.0819 43.9568 6.3817 43.8276 6.69431 43.8276H56.199C56.5116 43.8276 56.8114 43.9568 57.0325 44.1867C57.2535 44.4167 57.3777 44.7285 57.3777 45.0537C57.3777 45.3789 57.2535 45.6907 57.0325 45.9206C56.8114 46.1506 56.5116 46.2797 56.199 46.2797Z" fill="#7C30B7"/>
<path d="M31.4502 51.5517C31.7549 51.5517 32.0019 51.0577 32.0019 50.4483C32.0019 49.8389 31.7549 49.3448 31.4502 49.3448C31.1455 49.3448 30.8984 49.8389 30.8984 50.4483C30.8984 51.0577 31.1455 51.5517 31.4502 51.5517Z" fill="#FFDA44"/>
<path d="M38 26C38 23.7909 39.7909 22 42 22H58.4828C60.6919 22 62.4828 23.7909 62.4828 26V36.9655C62.4828 39.1747 60.6919 40.9655 58.4828 40.9655H42C39.7909 40.9655 38 39.1747 38 36.9655V26Z" fill="white" stroke="#7C30B7" stroke-width="2"/>
<path fill-rule="evenodd" clip-rule="evenodd" d="M54.0868 28.7584C53.2059 28.6886 52.8352 28.9037 52.4152 28.9605C52.8413 29.1813 53.422 29.3687 54.1259 29.3281C53.4776 29.5802 52.4252 29.494 51.6987 29.0546C51.5096 28.9401 51.3107 28.7592 51.1618 28.6147C50.5731 28.0859 50.1385 27.0781 48.2596 27.0036C45.903 26.9112 44.0913 28.6235 44.0031 30.8208C43.9145 33.0181 45.7535 34.8745 48.1103 34.9669C48.1414 34.9685 48.1724 34.9681 48.203 34.9681C48.8193 34.9323 49.6313 34.6888 50.2428 34.3156C49.9216 34.7668 48.7211 35.2443 48.0962 35.3956C48.1588 35.887 48.4244 36.1156 48.6423 36.2702C49.1254 36.6125 49.6988 36.1282 51.0214 36.1523C51.7573 36.1657 52.5164 36.347 53.1301 36.6872L53.7796 34.4428C55.4302 34.468 56.8049 33.2636 56.867 31.7164C56.9301 30.1434 55.7696 28.8911 54.0868 28.7584Z" fill="#0373AA"/>
<path d="M1 8C1 5.79086 2.79086 4 5 4H21.4828C23.6919 4 25.4828 5.79086 25.4828 8V20.069C25.4828 22.2781 23.6919 24.069 21.4828 24.069H4.99999C2.79086 24.069 1 22.2781 1 20.069V8Z" fill="#FFDA44" stroke="#7C30B7" stroke-width="2"/>
<g clip-path="url(#clip1_998_176)">
<path d="M13.1726 21.3448C9.19782 21.3448 5.97023 18.1769 6.00021 14.1724C6.03019 10.1679 9.04849 7 13.1726 7C17.297 7 20.345 10.2276 20.345 14.1724C20.345 18.1172 17.1474 21.3448 13.1726 21.3448ZM15.2944 20.239L13.2623 14.77L11.3495 20.3586C12.7543 20.6875 13.7106 20.7769 15.2944 20.239ZM10.3336 19.9403L7.28536 11.6024C6.86678 12.4989 6.77741 13.2462 6.71745 14.1724C6.74743 16.6228 8.12196 18.8642 10.3336 19.9403ZM19.6278 14.1724C19.6575 12.5886 18.9108 11.3334 18.8509 11.1541C18.9108 12.3796 18.7312 13.0069 18.5222 13.6944L16.4302 19.7013C19.0602 18.1172 19.5678 15.7562 19.6278 14.1724ZM12.9636 13.9034L11.9474 11.1241L11.2002 11.0645C10.9015 10.8552 11.0806 10.5265 11.2899 10.5265C12.6347 10.6162 13.3816 10.6162 14.7267 10.5265C15.0557 10.5265 15.145 11.0048 14.7564 11.0645L14.0392 11.1241L16.3699 17.9976L17.4755 14.2321C17.5355 12.5886 17.0869 12.4093 16.4893 11.2138C16.0111 10.2873 16.5193 9.39071 17.4458 9.36102C16.6983 8.64377 15.1744 7.74722 13.1721 7.71724C11.1697 7.68726 9.04792 8.70345 7.79275 10.6162L10.0044 10.5565C10.2734 10.6761 10.1538 11.0645 10.0044 11.0944L9.22751 11.1541L11.5585 18.1472L12.9636 13.9034Z" fill="#21759B"/>
</g>
<path d="M14.6841 28.5027C14.6818 28.4885 14.6749 28.4754 14.6644 28.4656C14.6539 28.4558 14.6404 28.4497 14.6261 28.4484C14.603 28.4447 14.0944 28.4095 14.0944 28.4095L13.7066 28.0217C13.6718 27.9828 13.5943 27.9943 13.565 28.0024C13.5613 28.0024 13.4876 28.0256 13.3674 28.0647C13.2503 27.7264 13.0431 27.4158 12.6785 27.4158H12.6474C12.5427 27.2806 12.4148 27.2181 12.3065 27.2181C11.4572 27.2218 11.0521 28.2813 10.9243 28.8226L10.3307 29.0048C10.1486 29.0627 10.1417 29.067 10.1176 29.2406L9.61719 33.1005L13.3686 33.8026L15.4019 33.3643C15.4019 33.3606 14.688 28.5397 14.6843 28.503L14.6841 28.5027ZM13.1593 28.1299C13.0648 28.161 12.9555 28.1921 12.8414 28.2272V28.1573C12.8451 27.9828 12.8186 27.809 12.7639 27.643C12.954 27.6723 13.0818 27.8857 13.1593 28.1299ZM12.5349 27.6878C12.597 27.8707 12.6275 28.0634 12.6198 28.2566V28.2914L11.9639 28.4952C12.0923 28.0159 12.3289 27.779 12.5345 27.6899L12.5349 27.6878ZM12.2829 27.452C12.3218 27.4529 12.3595 27.4649 12.3915 27.4868C12.1179 27.6143 11.8286 27.9359 11.7045 28.5799L11.1857 28.7389C11.3321 28.2501 11.6736 27.4508 12.2826 27.4508L12.2829 27.452Z" fill="#95BF47"/>
<path d="M14.6241 28.4481C14.6009 28.4444 14.0924 28.4092 14.0924 28.4092L13.7046 28.0215C13.6903 28.0066 13.6709 27.9985 13.6503 27.9983L13.3672 33.8019L15.4004 33.3635L14.6823 28.5059C14.6775 28.4763 14.6541 28.4526 14.6243 28.448L14.6241 28.4481Z" fill="#5E8E3E"/>
<path d="M12.6766 29.5732L12.4243 30.318C12.2718 30.2439 12.1049 30.2044 11.9355 30.2012C11.5396 30.2012 11.5205 30.4495 11.5205 30.5118C11.5205 30.8508 12.4089 30.9813 12.4089 31.7805C12.4089 32.409 12.0093 32.8125 11.4738 32.8125C10.8298 32.8125 10.5 32.4129 10.5 32.4129L10.6712 31.8422C10.6712 31.8422 11.0084 32.1331 11.2959 32.1331C11.3303 32.1345 11.3646 32.1288 11.3967 32.1165C11.4288 32.1042 11.4581 32.0855 11.4828 32.0616C11.5075 32.0376 11.527 32.0089 11.5403 31.9771C11.5535 31.9454 11.5601 31.9113 11.5598 31.8769C11.5598 31.4304 10.8303 31.4111 10.8303 30.6818C10.8303 30.0686 11.2724 29.4711 12.161 29.4711C12.5102 29.4763 12.6772 29.573 12.6772 29.573L12.6766 29.5732Z" fill="white"/>
<path d="M17.8011 30.693C17.6547 30.6116 17.579 30.5411 17.579 30.4447C17.579 30.3225 17.6818 30.2435 17.8488 30.2435C17.9728 30.2463 18.0951 30.274 18.2088 30.3252L18.3438 29.8995C18.3438 29.8995 18.22 29.8002 17.8572 29.8002C17.3512 29.8002 16.9997 30.1009 16.9997 30.5235C16.9997 30.7625 17.1627 30.9464 17.3819 31.0776C17.559 31.1843 17.6213 31.2549 17.6213 31.3663C17.6213 31.4777 17.5341 31.5706 17.3682 31.5706C17.1238 31.5706 16.8932 31.4394 16.8932 31.4394L16.75 31.8651C16.75 31.8651 16.9637 32.0138 17.3207 32.0138C17.8406 32.0138 18.2146 31.7483 18.2146 31.2687C18.2174 31.0091 18.0289 30.8283 17.8032 30.6911L17.8011 30.693ZM19.8758 29.7976C19.6199 29.7976 19.4176 29.9232 19.2628 30.117L19.2542 30.1141L19.4763 28.908H18.8976L18.3352 31.9794H18.9144L19.1083 30.9294C19.1842 30.5328 19.3819 30.2875 19.5665 30.2875C19.6955 30.2875 19.7464 30.378 19.7464 30.5093C19.7464 30.5986 19.7378 30.6872 19.7211 30.7747L19.5019 31.9765H20.0811L20.3089 30.7348C20.3337 30.6061 20.3481 30.4755 20.3509 30.3448C20.3481 30.0064 20.1767 29.8023 19.876 29.8023L19.8758 29.7976ZM21.6579 29.7976C20.9608 29.7976 20.4996 30.4511 20.4996 31.1752C20.4996 31.642 20.7779 32.0153 21.2981 32.0153C21.982 32.0153 22.4452 31.3793 22.4452 30.6378C22.4452 30.2061 22.1999 29.7976 21.6579 29.7976ZM21.3737 31.5564C21.1768 31.5564 21.0926 31.3818 21.0926 31.1665C21.0926 30.8223 21.2635 30.2594 21.5792 30.2594C21.7843 30.2594 21.8528 30.4431 21.8528 30.6213C21.852 30.9909 21.6804 31.5564 21.3737 31.5564ZM23.9263 29.7976C23.5336 29.7976 23.3133 30.1523 23.3133 30.1523H23.3047L23.3389 29.8329H22.8259L22.7081 30.6294L22.3061 32.8288H22.8826L23.0431 31.9391H23.0543C23.0543 31.9391 23.1721 32.0178 23.3946 32.0178C24.0749 32.0178 24.5191 31.2945 24.5191 30.5634C24.5219 30.1608 24.3482 29.7994 23.9259 29.7994L23.9263 29.7976ZM23.3724 31.5652C23.285 31.567 23.1999 31.5358 23.133 31.4775L23.2287 30.9144C23.2972 30.5409 23.4846 30.2901 23.6869 30.2901C23.864 30.2901 23.9173 30.4593 23.9173 30.6199C23.9182 31.0112 23.6959 31.5652 23.3724 31.5652ZM25.349 28.9342C25.2604 28.9337 25.1751 28.9701 25.1128 29.0355C25.0505 29.1009 25.0159 29.1896 25.0193 29.2815C25.0193 29.4589 25.1291 29.5823 25.2929 29.5823H25.3015C25.3462 29.5841 25.3908 29.5764 25.4325 29.5597C25.4742 29.543 25.5122 29.5176 25.544 29.485C25.5759 29.4525 25.601 29.4135 25.6178 29.3705C25.6346 29.3275 25.6427 29.2814 25.6417 29.235C25.6417 29.0604 25.5291 28.9342 25.3518 28.9342H25.349ZM24.54 31.9736H25.1192L25.5126 29.8452H24.9314M26.9885 29.8423H26.584L26.6038 29.7429C26.638 29.5386 26.7556 29.3549 26.9456 29.3549C27.0086 29.3549 27.0712 29.3647 27.1313 29.384L27.2432 28.9139C27.2432 28.9139 27.1403 28.8615 26.9282 28.8615C26.7219 28.8562 26.5205 28.9275 26.3603 29.0627C26.1634 29.2373 26.0705 29.4884 26.0237 29.7423L26.005 29.8417H25.7352L25.6506 30.2938H25.9205L25.6127 31.974H26.1939L26.5017 30.2938H26.9011L26.9797 29.8417L26.9885 29.8423ZM28.3831 29.8452L27.8573 31.3095H27.8487L27.7054 29.8452H27.0951L27.4438 31.7994C27.4522 31.8328 27.4482 31.8682 27.4326 31.8987C27.3569 32.0436 27.249 32.1676 27.1177 32.2605C27.0171 32.3323 26.9073 32.3894 26.7915 32.4297L26.952 32.94C27.1641 32.8811 27.3589 32.7685 27.5188 32.6123C27.783 32.3554 28.0275 31.9588 28.278 31.4191L28.9864 29.844H28.383L28.3831 29.8452Z" fill="black"/>
<path fill-rule="evenodd" clip-rule="evenodd" d="M17.7838 36.4171H10.439C9.97418 36.4171 9.5979 36.7971 9.60159 37.2582V40.0618C9.60159 40.5266 9.97787 40.9029 10.4427 40.9029H13.9214L15.5114 41.7883L15.1498 40.9029H17.7838C18.2486 40.9029 18.6249 40.5266 18.6249 40.0618V37.2582C18.6249 36.7934 18.2486 36.4171 17.7838 36.4171ZM10.2841 37.0664C10.1808 37.0738 10.1033 37.1106 10.0517 37.1807C10 37.2471 9.98157 37.332 9.99264 37.4279C10.2103 38.8113 10.4132 39.7446 10.6013 40.2279C10.6751 40.4049 10.76 40.4898 10.8596 40.4824C11.0145 40.4713 11.1989 40.2574 11.4166 39.8405C11.5309 39.6044 11.708 39.2503 11.9478 38.7781C12.147 39.4753 12.42 39.9991 12.7631 40.3496C12.859 40.4492 12.9586 40.4935 13.0545 40.4861C13.1394 40.4787 13.2057 40.4344 13.25 40.3533C13.2869 40.2832 13.3017 40.202 13.2943 40.1098C13.2722 39.7741 13.3054 39.3056 13.3976 38.7043C13.4935 38.0845 13.6115 37.6382 13.7554 37.3726C13.7849 37.3172 13.796 37.2619 13.7923 37.1955C13.7849 37.1106 13.748 37.0406 13.678 36.9852C13.6079 36.9299 13.5304 36.9041 13.4455 36.9114C13.3386 36.9188 13.2574 36.9705 13.2021 37.0738C12.9734 37.4906 12.811 38.1657 12.7151 39.1027C12.5749 38.7486 12.4569 38.3317 12.3647 37.8411C12.3241 37.6234 12.2245 37.5201 12.0622 37.5312C11.9515 37.5386 11.8593 37.6123 11.7855 37.7525L10.9776 39.2908C10.8448 38.7559 10.7194 38.103 10.605 37.332C10.5792 37.1402 10.4722 37.0516 10.2841 37.0664ZM17.3928 37.332C17.6547 37.3873 17.8502 37.5275 17.983 37.7599C18.1011 37.9591 18.1601 38.1989 18.1601 38.4867C18.1601 38.8666 18.0642 39.2134 17.8723 39.5306C17.651 39.8995 17.3633 40.084 17.0054 40.084C16.9427 40.084 16.8763 40.0766 16.8062 40.0618C16.5443 40.0065 16.3488 39.8663 16.216 39.6339C16.0979 39.431 16.0389 39.1876 16.0389 38.9035C16.0389 38.5235 16.1348 38.1768 16.3266 37.8632C16.5517 37.4943 16.8394 37.3099 17.1936 37.3099C17.2563 37.3099 17.3227 37.3172 17.3928 37.332ZM17.2378 39.3277C17.3743 39.206 17.4666 39.0252 17.5182 38.7818C17.533 38.6969 17.544 38.6047 17.544 38.5088C17.544 38.4018 17.5219 38.2874 17.4776 38.1731C17.4223 38.0292 17.3485 37.9517 17.26 37.9333C17.1272 37.9075 16.998 37.9813 16.8763 38.162C16.7767 38.3022 16.714 38.4498 16.6808 38.601C16.6623 38.6859 16.655 38.7781 16.655 38.8703C16.655 38.9773 16.6771 39.0916 16.7214 39.206C16.7767 39.3499 16.8505 39.4273 16.939 39.4458C17.0312 39.4642 17.1308 39.4237 17.2378 39.3277ZM15.67 37.7599C15.5372 37.5275 15.338 37.3873 15.0798 37.332C15.0097 37.3172 14.9433 37.3099 14.8805 37.3099C14.5264 37.3099 14.2387 37.4943 14.0136 37.8632C13.8218 38.1768 13.7259 38.5235 13.7259 38.9035C13.7259 39.1876 13.7849 39.431 13.903 39.6339C14.0358 39.8663 14.2313 40.0065 14.4932 40.0618C14.5633 40.0766 14.6297 40.084 14.6924 40.084C15.0502 40.084 15.338 39.8995 15.5593 39.5306C15.7512 39.2134 15.8471 38.8666 15.8471 38.4867C15.8471 38.1989 15.788 37.9591 15.67 37.7599ZM15.2052 38.7818C15.1535 39.0252 15.0613 39.206 14.9248 39.3277C14.8178 39.4237 14.7182 39.4642 14.626 39.4458C14.5375 39.4273 14.4637 39.3499 14.4084 39.206C14.3641 39.0916 14.342 38.9773 14.342 38.8703C14.342 38.7781 14.3493 38.6859 14.3678 38.601C14.401 38.4498 14.4637 38.3022 14.5633 38.162C14.685 37.9813 14.8142 37.9075 14.9469 37.9333C15.0355 37.9517 15.1093 38.0292 15.1646 38.1731C15.2089 38.2874 15.231 38.4018 15.231 38.5088C15.231 38.6047 15.2236 38.6969 15.2052 38.7818Z" fill="#7F54B3"/>
<path d="M19.5564 37.7267C19.3092 37.9701 19.1875 38.28 19.1875 38.6563C19.1875 39.0584 19.3092 39.3867 19.5527 39.6339C19.7962 39.881 20.1135 40.0065 20.5082 40.0065C20.6225 40.0065 20.7516 39.988 20.8918 39.9474V39.3498C20.7627 39.3867 20.652 39.4052 20.5561 39.4052C20.3606 39.4052 20.2057 39.3388 20.0876 39.2096C19.9696 39.0768 19.9106 38.8998 19.9106 38.6747C19.9106 38.4645 19.9696 38.2911 20.0839 38.1583C20.202 38.0218 20.3458 37.9554 20.5229 37.9554C20.6373 37.9554 20.759 37.9738 20.8918 38.0107V37.4131C20.7701 37.3799 20.6336 37.3651 20.4897 37.3651C20.1135 37.3615 19.8036 37.4832 19.5564 37.7267ZM22.1166 37.3615C21.7772 37.3615 21.5116 37.4758 21.3197 37.7008C21.1279 37.9259 21.0357 38.2431 21.0357 38.6489C21.0357 39.0879 21.1316 39.4236 21.3197 39.656C21.5079 39.8884 21.7846 40.0065 22.1461 40.0065C22.4965 40.0065 22.7658 39.8884 22.954 39.656C23.1421 39.4236 23.238 39.0953 23.238 38.6747C23.238 38.2542 23.1421 37.9296 22.9503 37.7008C22.7548 37.4758 22.4781 37.3615 22.1166 37.3615ZM22.408 39.2797C22.3416 39.383 22.242 39.4347 22.1166 39.4347C21.9985 39.4347 21.91 39.383 21.8473 39.2797C21.7846 39.1764 21.7551 38.9699 21.7551 38.6563C21.7551 38.173 21.8768 37.9332 22.124 37.9332C22.3822 37.9332 22.515 38.1767 22.515 38.6674C22.5113 38.9699 22.4744 39.1764 22.408 39.2797ZM25.0604 37.4315L24.9276 37.996C24.8944 38.1398 24.8612 38.2874 24.8317 38.4386L24.7579 38.8297C24.6878 38.4386 24.5919 37.9738 24.4702 37.4315H23.6143L23.2934 39.9438H23.9352L24.1086 38.2136L24.5476 39.9438H25.0051L25.4256 38.2173L25.6064 39.9438H26.2778L25.9384 37.4315H25.0604ZM28.1333 37.4315L28.0005 37.996C27.9673 38.1398 27.9341 38.2874 27.9046 38.4386L27.8308 38.8297C27.7607 38.4386 27.6648 37.9738 27.5431 37.4315H26.6872L26.3663 39.9438H27.0082L27.1816 38.2136L27.6205 39.9438H28.078L28.4948 38.2173L28.6756 39.9438H29.347L29.0076 37.4315H28.1333ZM30.2213 38.9514H30.8226V38.4313H30.2213V37.9701H30.9148V37.4352H29.5425V39.9474H30.9185V39.4125H30.2213V38.9514ZM32.8294 38.553C32.8995 38.4386 32.9364 38.3206 32.9364 38.1989C32.9364 37.9628 32.8442 37.7746 32.6597 37.6381C32.4753 37.5016 32.2207 37.4315 31.9035 37.4315H31.114V39.9438H31.7928V38.8002H31.8039L32.3535 39.9438H33.0692L32.5269 38.8112C32.656 38.7522 32.7593 38.6674 32.8294 38.553ZM31.7891 38.5124V37.9148C31.9514 37.9185 32.0658 37.9443 32.1359 37.996C32.206 38.0476 32.2392 38.1288 32.2392 38.2468C32.2392 38.4202 32.0879 38.5087 31.7891 38.5124ZM33.3347 37.7267C33.0876 37.9701 32.9659 38.28 32.9659 38.6563C32.9659 39.0584 33.0876 39.3867 33.3312 39.6339C33.5747 39.881 33.8918 40.0065 34.2866 40.0065C34.401 40.0065 34.5301 39.988 34.6702 39.9474V39.3498C34.5412 39.3867 34.4304 39.4052 34.3345 39.4052C34.1391 39.4052 33.9842 39.3388 33.8661 39.2096C33.748 39.0768 33.689 38.8998 33.689 38.6747C33.689 38.4645 33.748 38.2911 33.8623 38.1583C33.9804 38.0218 34.1242 37.9554 34.3012 37.9554C34.4156 37.9554 34.5374 37.9738 34.6702 38.0107V37.4131C34.5485 37.3799 34.412 37.3651 34.2682 37.3651C33.8955 37.3615 33.582 37.4832 33.3347 37.7267ZM35.5372 39.4052V38.9477H36.1383V38.4276H35.5372V37.9664H36.2343V37.4315H34.8621V39.9438H36.2381V39.4088H35.5372V39.4052Z" fill="black"/>
</g>
<defs>
<clipPath id="clip0_998_176">
<rect width="63.92" height="70" fill="white"/>
</clipPath>
<clipPath id="clip1_998_176">
<rect width="14.3448" height="14.3448" fill="white" transform="translate(6 7)"/>
</clipPath>
</defs>
</svg>