<svg width="70" height="70" viewBox="0 0 70 70" fill="none" xmlns="http://www.w3.org/2000/svg">
<path d="M5.82974 27.9998C6.13999 28.0016 6.43796 27.88 6.65816 27.6615L11.3247 22.9949C11.7822 22.5374 11.7822 21.7956 11.3247 21.3381C10.8673 20.8806 10.1256 20.8806 9.66814 21.3381L5.00155 26.0049C4.78048 26.224 4.65625 26.5222 4.65625 26.8331C4.65625 27.1442 4.78048 27.4424 5.00155 27.6615C5.22153 27.88 5.51972 28.0016 5.82974 27.9998Z" fill="#FEE13E"/>
<path d="M5.82974 34.9998C6.13999 35.0018 6.43796 34.8799 6.65816 34.6615L18.3247 22.9949C18.7822 22.5374 18.7822 21.7956 18.3247 21.3381C17.8673 20.8806 17.1256 20.8806 16.6681 21.3381L5.00155 33.0049C4.78048 33.224 4.65625 33.5222 4.65625 33.8333C4.65625 34.1442 4.78048 34.4424 5.00155 34.6615C5.22153 34.8799 5.51972 35.0018 5.82974 34.9998Z" fill="#FEE13E"/>
<rect x="13" y="64" width="27" height="5" fill="white"/>
<rect x="1" y="18" width="51" height="39" rx="3" fill="white"/>
<rect x="34" y="1" width="35" height="68" rx="3" fill="white"/>
<path d="M66.5002 0H36.1669C34.2338 0 32.6668 1.567 32.6668 3.49989V16.3334H5.83329C2.61166 16.3334 0 18.945 0 22.1667V52.5C0 55.7217 2.61166 58.3333 5.83329 58.3333H18.6668V63.0001H15.1667C13.2338 63.0001 11.6666 64.5671 11.6666 66.5C11.6666 68.4331 13.2338 70.0001 15.1667 70.0001H66.5002C68.4331 70.0001 70.0001 68.4331 70.0001 66.5V3.49989C70.0001 1.567 68.4331 0 66.5002 0ZM5.83329 18.6666H47.8334C49.7666 18.6666 51.3335 20.2336 51.3335 22.1667V50.1666H2.3334V22.1667C2.3334 20.2336 3.9004 18.6666 5.83329 18.6666ZM2.3334 52.5H51.3335C51.3335 54.4331 49.7666 56.0001 47.8334 56.0001H5.83329C3.9004 56.0001 2.3334 54.4331 2.3334 52.5ZM21 58.3333H32.6668V63.0001H21V58.3333ZM36.1669 67.6667H15.1667C14.5223 67.6667 14 67.1444 14 66.5C14 65.8559 14.5223 65.3335 15.1667 65.3335H38.5001C39.1444 65.3335 39.6668 65.8559 39.6668 66.5C39.6668 67.1444 39.1444 67.6667 38.5001 67.6667H36.1669ZM67.6669 66.5C67.6669 67.1444 67.1446 67.6667 66.5002 67.6667H41.79C42.1682 66.5971 42.0045 65.4107 41.351 64.4834C40.6972 63.5562 39.6345 63.0032 38.5001 63.0001H35.0002V58.3333H47.8334C51.0551 58.3333 53.6667 55.7217 53.6667 52.5V22.1667C53.6667 18.945 51.0551 16.3334 47.8334 16.3334H35.0002V3.49989C35.0002 2.85552 35.5225 2.33319 36.1669 2.33319H66.5002C67.1446 2.33319 67.6669 2.85552 67.6669 3.49989V66.5Z" fill="#7C30B7"/>
<path d="M62.9949 5.83313H39.6615C38.3728 5.83313 37.3281 6.87779 37.3281 8.16653V10.4999C37.3281 11.7885 38.3728 12.8331 39.6615 12.8331H62.9949C64.2836 12.8331 65.3283 11.7885 65.3283 10.4999V8.16653C65.3283 6.87779 64.2836 5.83313 62.9949 5.83313ZM39.6615 10.4999V8.16653H62.9949V10.4999H39.6615Z" fill="#FEE13E"/>
<path d="M60.6639 23.3329C62.5971 23.3329 64.1641 21.7659 64.1641 19.833C64.1641 17.8999 62.5971 16.3329 60.6639 16.3329C58.7311 16.3329 57.1641 17.8999 57.1641 19.833C57.1641 21.7659 58.7311 23.3329 60.6639 23.3329ZM60.6639 18.6663C61.3083 18.6663 61.8307 19.1886 61.8307 19.833C61.8307 20.4774 61.3083 20.9997 60.6639 20.9997C60.0198 20.9997 59.4975 20.4774 59.4975 19.833C59.4975 19.1886 60.0198 18.6663 60.6639 18.6663Z" fill="#FDE355"/>
<path d="M64.1641 29.1664C64.1641 27.2335 62.5971 25.6665 60.6639 25.6665C58.7311 25.6665 57.1641 27.2335 57.1641 29.1664C57.1641 31.0995 58.7311 32.6665 60.6639 32.6665C62.5971 32.6665 64.1641 31.0995 64.1641 29.1664ZM60.6639 30.3331C60.0198 30.3331 59.4975 29.8108 59.4975 29.1664C59.4975 28.522 60.0198 27.9997 60.6639 27.9997C61.3083 27.9997 61.8307 28.522 61.8307 29.1664C61.8307 29.8108 61.3083 30.3331 60.6639 30.3331Z" fill="#FDE355"/>
<path d="M45.5026 60.6665C44.8583 60.6665 44.3359 61.1888 44.3359 61.8332V64.1666C44.3359 64.811 44.8583 65.3333 45.5026 65.3333C46.147 65.3333 46.6693 64.811 46.6693 64.1666V61.8332C46.6693 61.1888 46.147 60.6665 45.5026 60.6665Z" fill="#FEE13E"/>
<path d="M50.1667 60.6665C49.5223 60.6665 49 61.1888 49 61.8332V64.1666C49 64.811 49.5223 65.3333 50.1667 65.3333C50.8111 65.3333 51.3334 64.811 51.3334 64.1666V61.8332C51.3334 61.1888 50.8111 60.6665 50.1667 60.6665Z" fill="#7C30B7"/>
<path d="M54.8308 60.6665C54.1864 60.6665 53.6641 61.1888 53.6641 61.8332V64.1666C53.6641 64.811 54.1864 65.3333 54.8308 65.3333C55.4749 65.3333 55.9973 64.811 55.9973 64.1666V61.8332C55.9973 61.1888 55.4749 60.6665 54.8308 60.6665Z" fill="#FEE13E"/>
<path d="M59.5024 60.6665C58.8583 60.6665 58.3359 61.1888 58.3359 61.8332V64.1666C58.3359 64.811 58.8583 65.3333 59.5024 65.3333C60.1468 65.3333 60.6691 64.811 60.6691 64.1666V61.8332C60.6691 61.1888 60.1468 60.6665 59.5024 60.6665Z" fill="#7C30B7"/>
<path d="M64.1667 60.6665C63.5223 60.6665 63 61.1888 63 61.8332V64.1666C63 64.811 63.5223 65.3333 64.1667 65.3333C64.8111 65.3333 65.3334 64.811 65.3334 64.1666V61.8332C65.3334 61.1888 64.8111 60.6665 64.1667 60.6665Z" fill="#FEE13E"/>
<path d="M8.35616 31.9524L7.625 23.0166L16.357 23.0346L15.5839 31.9524L12.024 32.9832L8.35616 31.9524Z" fill="#E34F26"/>
<path d="M12.0234 32.1203V23.8677L15.6193 23.8796L14.9781 31.2632L12.0234 32.1203Z" fill="#EF652A"/>
<path d="M14.6329 25.9294L14.7348 24.8386H9.20312L9.50874 28.1828H13.3264L13.1767 29.6092L11.954 29.9387L10.7135 29.5792L10.6476 28.7282H9.55071L9.70056 30.4662L11.954 31.0954L14.2254 30.4662L14.531 27.0741H10.5216L10.4078 25.9294H14.6329Z" fill="white"/>
<path d="M23.3562 31.9525L22.625 23.0168L31.357 23.0348L30.5839 31.9525L27.024 32.9833L23.3562 31.9525Z" fill="#1B73BA"/>
<path d="M27.0234 32.1201V23.8677L30.6193 23.8796L29.9781 31.2631L27.0234 32.1201Z" fill="#1C88C7"/>
<path d="M29.727 24.9226H24.1953L24.3452 26.0013H26.9701L24.3871 27.11L24.5369 28.1528H28.3426L28.2047 29.6091L26.9162 29.8608L25.7476 29.5612L25.6576 28.7341H24.5849L24.7287 30.4542L27.03 31.0954L29.2356 30.3943L29.5172 27.0321H27.1858L29.7269 25.9773L29.727 24.9226Z" fill="white"/>
<path d="M38.3562 31.9358L37.625 23L46.357 23.018L45.5839 31.9358L42.024 32.9666L38.3562 31.9358Z" fill="#E9CA32"/>
<path d="M42.0234 32.1203V23.8677L45.6193 23.8796L44.9781 31.2632L42.0234 32.1203Z" fill="#FFDE25"/>
<path d="M41.6406 24.8477H40.69V30.3404L39.9506 30.1995V29.4601L39.0703 29.3193V30.9741L41.6406 31.6431V24.8477ZM42.3538 24.8477H44.9855L44.8095 25.9004H43.3584V27.628H44.8095L44.6334 31.115L42.3538 31.6431V30.5516L43.894 30.0235L43.983 28.5799L42.3538 28.8158V24.8477Z" fill="white"/>
<path d="M24.6077 41.5539C24.2581 41.5559 23.9554 41.6398 23.7015 41.7649C23.6077 41.5793 23.514 41.4172 23.4984 41.2961C23.4808 41.1555 23.4593 41.0695 23.4808 40.9016C23.5023 40.7336 23.5999 40.4953 23.5999 40.4758C23.5979 40.4582 23.5784 40.3723 23.3773 40.3703C23.1761 40.3684 23.0023 40.4094 22.9827 40.4621C22.9632 40.5148 22.9241 40.6359 22.8988 40.7609C22.8636 40.9445 22.4964 41.5949 22.2874 41.9367C22.2191 41.8039 22.1605 41.6867 22.1487 41.5929C22.1312 41.4523 22.1097 41.3664 22.1312 41.1984C22.1527 41.0304 22.2503 40.7922 22.2503 40.7727C22.2484 40.7551 22.2288 40.6691 22.0277 40.6672C21.8265 40.6652 21.6527 40.7062 21.6331 40.759C21.6136 40.8117 21.5921 40.9367 21.5492 41.0578C21.5081 41.1789 21.0198 42.2648 20.8929 42.548C20.8284 42.6926 20.7718 42.8078 20.7308 42.8859C20.6898 42.9641 20.7288 42.8918 20.7249 42.8996C20.6898 42.966 20.6702 43.0031 20.6702 43.0031V43.0051C20.6429 43.0539 20.6136 43.1008 20.5999 43.1008C20.5901 43.1008 20.5706 42.9699 20.6038 42.7902C20.6761 42.4133 20.8519 41.8254 20.8499 41.8039C20.8499 41.7942 20.8831 41.6906 20.7366 41.6379C20.594 41.5852 20.5433 41.6731 20.5315 41.6731C20.5198 41.6731 20.5101 41.7043 20.5101 41.7043C20.5101 41.7043 20.6683 41.0422 20.2073 41.0422C19.9183 41.0422 19.5198 41.3567 19.3226 41.6438C19.1976 41.7121 18.9319 41.8567 18.6507 42.011C18.5433 42.0696 18.4319 42.1321 18.3265 42.1887L18.305 42.1652C17.7464 41.5695 16.7132 41.1477 16.7562 40.3469C16.7718 40.0559 16.8734 39.2883 18.7406 38.3586C20.2699 37.5969 21.4945 37.8059 21.7073 38.2707C22.0101 38.9348 21.053 40.1691 19.4632 40.3469C18.8578 40.4152 18.5394 40.1809 18.4593 40.093C18.3753 40.0012 18.3636 39.9973 18.3324 40.0148C18.2816 40.0422 18.3128 40.1242 18.3324 40.173C18.3792 40.2961 18.5746 40.5148 18.9066 40.6242C19.1976 40.7199 19.9085 40.7727 20.7679 40.4406C21.7308 40.0676 22.4828 39.0324 22.2621 38.1672C22.0374 37.2863 20.5765 36.9973 19.1956 37.4875C18.3734 37.7805 17.4827 38.2375 16.8421 38.8371C16.0804 39.548 15.9593 40.1691 16.0101 40.4269C16.1878 41.3469 17.4554 41.9465 17.9632 42.3898C17.9378 42.4035 17.9144 42.4172 17.8929 42.4289C17.639 42.5539 16.6722 43.0598 16.43 43.5949C16.1566 44.2004 16.473 44.6359 16.6839 44.6945C17.3362 44.8762 18.0042 44.55 18.3655 44.0129C18.7249 43.4758 18.682 42.7785 18.5159 42.4602L18.5101 42.4484L18.7093 42.3312C18.8382 42.2551 18.9652 42.1848 19.0765 42.1242C19.014 42.2941 18.969 42.4953 18.9456 42.7883C18.9183 43.132 19.0589 43.5773 19.2445 43.7531C19.3265 43.8293 19.4241 43.8312 19.4847 43.8312C19.6995 43.8312 19.7972 43.6535 19.9046 43.4406C20.0374 43.1808 20.1546 42.8801 20.1546 42.8801C20.1546 42.8801 20.0081 43.6945 20.4085 43.6945C20.555 43.6945 20.7015 43.5051 20.7679 43.4074V43.4093C20.7679 43.4093 20.7718 43.4035 20.7796 43.3898C20.7878 43.3777 20.7956 43.3653 20.803 43.3527V43.3488C20.8616 43.2473 20.9925 43.0148 21.1878 42.6301C21.4397 42.134 21.682 41.5129 21.682 41.5129C21.682 41.5129 21.7054 41.6652 21.7777 41.9152C21.8206 42.0637 21.9144 42.2258 21.9866 42.384C21.928 42.466 21.8929 42.5129 21.8929 42.5129L21.8948 42.5149C21.848 42.5774 21.7952 42.6438 21.7405 42.7102C21.5413 42.9485 21.303 43.22 21.2718 43.2981C21.2347 43.3899 21.2425 43.4582 21.3148 43.5129C21.3675 43.552 21.4613 43.5598 21.5609 43.552C21.7405 43.5402 21.8655 43.4953 21.928 43.468C22.0257 43.4328 22.137 43.3801 22.2445 43.302C22.4398 43.1575 22.5589 42.9524 22.5472 42.6789C22.5413 42.5285 22.4925 42.3801 22.432 42.2395C22.4495 42.2141 22.4671 42.1887 22.4847 42.1614C22.7933 41.7102 23.0316 41.2141 23.0316 41.2141C23.0316 41.2141 23.055 41.3664 23.1273 41.6164C23.1644 41.7434 23.2386 41.8821 23.305 42.0188C23.0159 42.2551 22.8343 42.5286 22.7718 42.7083C22.6566 43.0403 22.7464 43.1907 22.9163 43.2258C22.9925 43.2415 23.1019 43.2063 23.1839 43.1711C23.2854 43.1379 23.4085 43.0813 23.5218 42.9973C23.7171 42.8528 23.9046 42.6516 23.8948 42.3801C23.889 42.2551 23.8558 42.1321 23.8109 42.0149C24.057 41.9133 24.3753 41.8547 24.7796 41.9036C25.6488 42.0051 25.8206 42.5481 25.7874 42.7747C25.7542 43.0012 25.5726 43.1262 25.512 43.1653C25.4515 43.2024 25.432 43.2161 25.4378 43.2434C25.4456 43.2844 25.473 43.2825 25.5257 43.2747C25.598 43.2629 25.9827 43.0891 25.9984 42.6712C26.0218 42.134 25.512 41.5481 24.6077 41.5539ZM17.9046 43.8137C17.6175 44.1281 17.2132 44.2473 17.0413 44.1457C16.8558 44.0383 16.928 43.5754 17.2816 43.2414C17.4964 43.0383 17.7757 42.8508 17.9593 42.7355C18.0003 42.7102 18.0628 42.6731 18.137 42.6281C18.1487 42.6203 18.1566 42.6164 18.1566 42.6164C18.1702 42.6086 18.1859 42.5988 18.2015 42.5891C18.3323 43.0656 18.2073 43.4836 17.9046 43.8137ZM20.0042 42.3859C19.9046 42.6301 19.6937 43.257 19.5667 43.2219C19.4573 43.1926 19.3909 42.718 19.5452 42.2492C19.6233 42.0129 19.7894 41.7316 19.887 41.6222C20.0452 41.4465 20.2171 41.3879 20.2601 41.4601C20.3109 41.5539 20.0667 42.2336 20.0042 42.3859ZM21.7366 43.2141C21.6937 43.2356 21.6546 43.2512 21.637 43.2395C21.6234 43.2317 21.6546 43.2024 21.6546 43.2024C21.6546 43.2024 21.8714 42.9699 21.9573 42.8625C22.0062 42.8 22.0647 42.7278 22.1272 42.6457V42.6692C22.1273 42.9504 21.8577 43.1379 21.7366 43.2141ZM23.0726 42.9094C23.0413 42.8859 23.0452 42.8137 23.1507 42.5871C23.1917 42.4973 23.2854 42.3469 23.4476 42.2043C23.4671 42.2629 23.4788 42.3195 23.4769 42.3723C23.4749 42.7238 23.2249 42.8547 23.0726 42.9094Z" fill="#CF649A"/>
<path d="M41 41.0787C41 40.4163 40.1704 39.7885 38.8985 39.3991C39.192 38.1028 39.0616 37.0714 38.4868 36.7412C38.3543 36.6637 38.1993 36.627 38.0302 36.627V37.0816C38.1239 37.0816 38.1993 37.0999 38.2625 37.1346C38.5398 37.2936 38.66 37.8989 38.5662 38.6776C38.5438 38.8692 38.5071 39.071 38.4623 39.2768C38.0628 39.179 37.6266 39.1036 37.168 39.0547C36.8928 38.6776 36.6074 38.3352 36.32 38.0355C36.9845 37.4179 37.6082 37.0795 38.0322 37.0795V36.625C37.4717 36.625 36.7379 37.0245 35.9959 37.7175C35.254 37.0286 34.5202 36.6332 33.9596 36.6332V37.0877C34.3816 37.0877 35.0073 37.424 35.6718 38.0375C35.3865 38.3372 35.1011 38.6776 34.83 39.0547C34.3693 39.1036 33.9331 39.179 33.5336 39.2789C33.4868 39.0751 33.4521 38.8773 33.4276 38.6878C33.3318 37.9091 33.4501 37.3038 33.7252 37.1427C33.7864 37.106 33.8659 37.0897 33.9596 37.0897V36.6352C33.7884 36.6352 33.6335 36.6719 33.499 36.7493C32.9262 37.0795 32.7978 38.1089 33.0933 39.4012C31.8255 39.7925 31 40.4183 31 41.0787C31 41.7412 31.8296 42.369 33.1015 42.7583C32.808 44.0547 32.9384 45.0861 33.5133 45.4163C33.6457 45.4937 33.8006 45.5304 33.9719 45.5304C34.5324 45.5304 35.2662 45.1309 36.0082 44.4379C36.7501 45.1268 37.4839 45.5223 38.0444 45.5223C38.2157 45.5223 38.3706 45.4856 38.5051 45.4081C39.0779 45.0779 39.2063 44.0486 38.9107 42.7563C40.1745 42.367 41 41.7392 41 41.0787ZM38.3461 39.7192C38.2707 39.9821 38.1769 40.2532 38.0709 40.5243C37.9874 40.3612 37.8997 40.1982 37.8039 40.0351C37.7102 39.872 37.6103 39.713 37.5104 39.5581C37.7998 39.601 38.0791 39.654 38.3461 39.7192ZM37.4125 41.89C37.2536 42.1652 37.0905 42.4261 36.9213 42.6686C36.6176 42.6951 36.3098 42.7094 36 42.7094C35.6922 42.7094 35.3844 42.6951 35.0827 42.6707C34.9136 42.4281 34.7485 42.1692 34.5895 41.8961C34.4346 41.6291 34.2939 41.358 34.1655 41.0848C34.2919 40.8117 34.4346 40.5386 34.5875 40.2716C34.7464 39.9964 34.9095 39.7355 35.0787 39.4929C35.3824 39.4664 35.6902 39.4522 36 39.4522C36.3078 39.4522 36.6156 39.4664 36.9173 39.4909C37.0864 39.7334 37.2515 39.9923 37.4105 40.2654C37.5654 40.5325 37.7061 40.8036 37.8345 41.0767C37.7061 41.3498 37.5654 41.623 37.4125 41.89ZM38.0709 41.625C38.181 41.8981 38.2748 42.1713 38.3522 42.4363C38.0852 42.5015 37.8039 42.5565 37.5124 42.5993C37.6123 42.4424 37.7122 42.2813 37.806 42.1162C37.8997 41.9532 37.9874 41.7881 38.0709 41.625ZM36.0041 43.7999C35.8145 43.6042 35.6249 43.3861 35.4374 43.1476C35.6209 43.1558 35.8084 43.1619 35.998 43.1619C36.1896 43.1619 36.3791 43.1578 36.5646 43.1476C36.3812 43.3861 36.1916 43.6042 36.0041 43.7999ZM34.4876 42.5993C34.1981 42.5565 33.9189 42.5035 33.6518 42.4383C33.7273 42.1754 33.821 41.9043 33.927 41.6332C34.0106 41.7962 34.0983 41.9593 34.1941 42.1224C34.2898 42.2854 34.3877 42.4444 34.4876 42.5993ZM35.9939 38.3576C36.1834 38.5532 36.373 38.7713 36.5605 39.0098C36.3771 39.0017 36.1896 38.9956 36 38.9956C35.8084 38.9956 35.6188 38.9996 35.4334 39.0098C35.6168 38.7713 35.8064 38.5532 35.9939 38.3576ZM34.4855 39.5581C34.3856 39.7151 34.2858 39.8761 34.192 40.0412C34.0983 40.2043 34.0106 40.3674 33.927 40.5304C33.817 40.2573 33.7232 39.9842 33.6457 39.7192C33.9128 39.656 34.194 39.601 34.4855 39.5581ZM32.6408 42.1101C31.9193 41.8023 31.4525 41.3987 31.4525 41.0787C31.4525 40.7587 31.9193 40.3531 32.6408 40.0473C32.8161 39.9719 33.0078 39.9047 33.2055 39.8415C33.3217 40.241 33.4745 40.6568 33.6641 41.0828C33.4766 41.5068 33.3257 41.9206 33.2116 42.318C33.0098 42.2548 32.8182 42.1855 32.6408 42.1101ZM33.7375 45.0229C33.4602 44.8639 33.34 44.2585 33.4337 43.4799C33.4562 43.2883 33.4929 43.0865 33.5377 42.8806C33.9372 42.9784 34.3734 43.0539 34.832 43.1028C35.1072 43.4799 35.3926 43.8223 35.68 44.1219C35.0155 44.7396 34.3918 45.0779 33.9678 45.0779C33.8761 45.0759 33.7986 45.0575 33.7375 45.0229ZM38.5724 43.4697C38.6682 44.2483 38.5499 44.8537 38.2748 45.0147C38.2136 45.0514 38.1341 45.0677 38.0404 45.0677C37.6184 45.0677 36.9927 44.7314 36.3282 44.1179C36.6135 43.8182 36.8989 43.4778 37.17 43.1007C37.6307 43.0518 38.0669 42.9764 38.4664 42.8765C38.5132 43.0824 38.5499 43.2801 38.5724 43.4697ZM39.3571 42.1101C39.1818 42.1855 38.9902 42.2528 38.7925 42.316C38.6763 41.9165 38.5234 41.5007 38.3339 41.0746C38.5214 40.6507 38.6722 40.2369 38.7864 39.8394C38.9882 39.9026 39.1798 39.9719 39.3591 40.0473C40.0807 40.3551 40.5475 40.7587 40.5475 41.0787C40.5455 41.3987 40.0787 41.8044 39.3571 42.1101Z" fill="#61DAFB"/>
<path d="M36.0018 42.0102C36.5163 42.0102 36.9333 41.5932 36.9333 41.0787C36.9333 40.5643 36.5163 40.1472 36.0018 40.1472C35.4874 40.1472 35.0703 40.5643 35.0703 41.0787C35.0703 41.5932 35.4874 42.0102 36.0018 42.0102Z" fill="#61DAFB"/>
</svg>