<svg width="80" height="70" viewBox="0 0 80 70" fill="none" xmlns="http://www.w3.org/2000/svg">
<g clip-path="url(#clip0_385_6125)">
<path d="M76.3843 32.2501C76.3843 31.9833 76.3683 31.7165 76.3363 31.4497C76.2563 30.5708 76.0324 29.739 75.7125 28.9543C75.6965 28.8915 75.6646 28.8287 75.6486 28.7816C75.2167 27.7929 74.625 26.8983 73.8893 26.1293C73.8413 26.0822 73.7933 26.0351 73.7453 25.9723C73.6014 25.8311 73.4575 25.6898 73.3135 25.5643C71.6502 24.0733 69.4431 23.1787 67.0281 23.1787C64.5811 23.1787 62.358 24.1047 60.6946 25.6114C60.3108 25.9566 59.9429 26.349 59.6231 26.7571C58.4076 28.3108 57.6719 30.2569 57.6719 32.36C57.6719 37.4136 61.8622 41.5413 67.0281 41.5413C70.6586 41.5413 73.8093 39.501 75.3607 36.5347C75.6966 35.907 75.9524 35.2164 76.1284 34.5101C76.1764 34.3375 76.2083 34.1492 76.2403 33.9608C76.3363 33.4429 76.3843 32.9093 76.3843 32.36C76.3843 32.3129 76.3843 32.2815 76.3843 32.2501ZM74.7689 30.1314C74.2891 30.1157 73.7933 30.0215 73.3455 29.8489C73.3295 29.943 73.3135 30.0372 73.2975 30.1314C72.9777 30.0372 72.6578 29.943 72.3219 29.8489C72.3059 29.7076 72.3059 29.5507 72.2899 29.4094C71.6982 29.4408 71.1064 29.535 70.5306 29.6762C70.4187 29.7076 70.2907 29.739 70.2108 29.8332C70.1308 29.9117 70.1148 30.0215 70.0828 30.1314C69.9549 30.4924 69.619 30.7905 69.2352 30.8847C69.2192 31.0417 69.3311 31.2143 69.4911 31.23C69.2672 31.591 69.2672 32.0775 69.4911 32.4385C69.715 32.7994 70.1468 33.0349 70.5786 33.0035C70.8025 32.9878 71.0264 32.925 71.2344 32.8936C71.5862 32.8622 71.9541 32.9407 72.2579 33.129C71.9861 33.5842 72.5778 34.0707 72.6418 34.6043C72.6578 34.7613 72.6418 34.9182 72.6258 35.0751C72.5458 35.8913 72.7697 36.7388 73.2815 37.3979C71.5702 39.4225 68.7874 40.5211 66.1164 40.2386C63.4455 39.9561 60.9825 38.2611 59.767 35.9227C59.1753 34.777 58.8874 33.49 58.9034 32.2031C58.9194 31.073 59.1273 29.331 59.911 28.4521C59.799 28.7817 59.6231 29.0955 59.5271 29.4408C59.5111 29.5193 59.4951 29.6135 59.5431 29.6605C59.5911 29.7233 59.6871 29.7233 59.767 29.7704C59.927 29.8803 59.863 30.1 59.863 30.2883C59.847 30.6493 60.1509 30.9946 60.5187 31.026C60.2788 30.6964 60.1669 30.2883 60.1829 29.896C60.3428 30.2726 60.5187 30.665 60.6787 31.0417C60.7586 31.23 60.8546 31.434 60.9985 31.5753C61.2224 31.795 61.5903 31.8578 61.8942 31.7479C62.358 32.2187 62.9497 32.5483 63.5735 32.7367C63.6055 32.8936 63.6215 33.0349 63.6534 33.1918C63.3816 33.286 63.2216 33.5528 63.2056 33.8353C63.1896 34.1178 63.3016 34.3846 63.4455 34.62C63.6055 34.8554 63.7974 35.0595 64.0373 35.2164C64.1652 35.2949 64.2932 35.3733 64.3891 35.4832C64.5971 35.7186 64.5971 36.0482 64.6131 36.3464C64.629 36.9742 64.709 37.5863 64.837 38.214C64.9169 38.5907 65.0129 38.9674 65.2368 39.2656C65.4607 39.5638 65.8605 39.7835 66.2284 39.7207C66.2124 39.5324 66.0845 39.3597 65.9085 39.2813C65.9405 39.1086 65.9725 38.9517 65.9885 38.7791C65.8446 38.7947 65.7006 38.732 65.6366 38.6064C65.7486 38.5279 65.8286 38.4181 65.8446 38.2768C65.7806 38.2297 65.7006 38.1984 65.6366 38.1513C66.5323 37.8845 67.172 36.9899 67.108 36.0796C67.3479 36.2365 67.6998 36.0953 67.8597 35.8442C68.0197 35.5931 68.0357 35.3106 68.0836 35.0281C68.1316 34.7456 68.2276 34.4474 68.4515 34.2747C68.1636 33.9608 67.7638 33.7568 67.3319 33.7254C67.0761 33.7097 66.7402 33.7097 66.6442 33.4743C66.6122 33.3801 66.6122 33.286 66.5962 33.1918C66.4523 32.6739 65.4447 32.7367 65.4287 32.2031C65.3647 32.4385 65.0289 32.4228 64.821 32.2972C64.6131 32.1874 64.3732 32.0147 64.1492 32.1246C64.0053 32.1874 63.9413 32.3443 63.8134 32.4385C63.6215 32.5797 63.3496 32.5012 63.1097 32.4071C63.0777 32.1717 63.0617 31.9519 63.0297 31.7165C62.8858 31.6851 62.7258 31.6537 62.5819 31.6224C62.7098 31.4811 62.7578 31.2614 62.6938 31.073C62.5019 31.2771 62.23 31.4183 61.9261 31.4497C61.8622 31.4497 61.7822 31.4654 61.7342 31.434C61.6383 31.3869 61.5903 31.2771 61.5903 31.1672C61.5583 30.7905 61.8302 30.4453 62.182 30.2883C62.5339 30.1314 62.9337 30.1471 63.3016 30.2099C63.2536 30.3982 63.4295 30.6022 63.6374 30.6179C63.5735 30.2098 63.9093 29.8646 64.2132 29.5821C64.645 29.1897 65.0769 28.7816 65.5247 28.3893C65.6047 28.3108 65.7006 28.2323 65.8286 28.2323C65.9405 28.2323 66.1164 28.2637 66.1004 28.1539C66.0045 28.1225 65.9085 28.0754 65.8126 28.044C65.7966 27.8714 66.0685 27.8871 66.2284 27.9498C66.3883 28.0283 66.6762 27.9969 66.6122 27.8243C66.7402 27.9185 66.7562 28.1225 66.6442 28.248C66.8362 28.2951 67.0281 28.3422 67.22 28.3893C67.156 28.201 67.0281 28.044 66.8681 27.9341C66.9961 27.9969 67.14 27.84 67.124 27.6987C67.108 27.5575 66.9961 27.4476 66.9001 27.3378C66.8042 27.2279 66.7402 27.0709 66.8202 26.9454C66.6282 27.0082 66.4363 27.0709 66.2444 27.118C66.3723 26.8669 66.0525 26.5687 65.7806 26.6472C65.5087 26.7257 65.3807 27.0553 65.4607 27.3221C65.1728 27.4476 64.9169 27.636 64.709 27.8714C64.693 27.7144 64.677 27.5732 64.661 27.4162C64.5171 27.4319 64.3572 27.4476 64.2292 27.3691C64.0053 27.2279 64.0533 26.8512 64.2612 26.6943C64.4691 26.5216 64.757 26.5059 65.0289 26.4746C65.0609 26.5373 65.0929 26.6001 65.1248 26.6786C65.3488 26.5059 65.5407 26.2705 65.8126 26.1293C66.0685 25.988 66.4363 25.9723 66.6282 26.1764C66.4363 26.2862 66.2444 26.3961 66.0525 26.5059C66.2924 26.553 66.5483 26.6001 66.7882 26.6629C66.9641 26.5373 67.156 26.4118 67.3319 26.2862C67.124 25.8625 66.6762 25.5643 66.1964 25.5486C65.8605 25.5329 65.4447 25.7997 65.5567 26.1136C65.4447 26.1293 65.3328 26.0979 65.2368 26.0351C65.2208 25.8625 65.3328 25.7055 65.4927 25.6271C65.2528 25.5172 64.9489 25.5643 64.773 25.7526C64.9009 25.784 64.9169 25.988 64.821 26.0665C64.725 26.145 64.5651 26.1607 64.4371 26.145C64.3092 26.145 64.1492 26.1293 64.0373 26.2078C64.0213 26.1136 64.0053 26.0037 64.0053 25.9096C64.2612 26.0037 64.5811 25.8154 64.629 25.5486C64.5011 25.7055 64.2612 25.7683 64.0693 25.7055C63.9573 25.6584 63.8614 25.58 63.7654 25.5329C63.4455 25.3759 63.0137 25.5015 62.8378 25.7997C62.9657 25.7997 63.1097 25.7997 63.2376 25.7997C63.2696 25.8782 63.2536 25.9723 63.1896 26.0351C63.3816 25.9566 63.6374 26.0351 63.7174 26.2234C63.2216 26.0979 62.7258 25.9723 62.246 25.8625C63.7174 24.8109 65.5727 24.2773 67.3959 24.3715C69.2192 24.4657 70.9945 25.1876 72.3539 26.3647C72.082 26.4903 71.8421 26.71 71.6822 26.9768C71.8581 27.0082 72.018 27.1494 72.066 27.3221C72.178 27.2907 72.2739 27.2593 72.3859 27.2122C72.4019 27.3221 72.4179 27.4319 72.4339 27.5418C72.018 27.4947 71.6342 27.7301 71.2823 27.9655C71.1864 28.0283 71.0904 28.0911 71.0584 28.201C71.0105 28.2951 71.0584 28.4521 71.1704 28.4678C71.1384 28.5462 71.1064 28.6247 71.0744 28.7032C70.8345 28.4521 70.3227 28.6404 70.3067 28.97C70.2748 29.3153 70.7226 29.5664 71.0264 29.4094C71.1864 29.3153 71.2823 29.1426 71.4103 29.0014C71.6022 28.7817 71.8581 28.6247 72.146 28.5776C72.3539 28.7973 72.5938 28.97 72.8497 29.1112C72.7697 29.2054 72.6258 29.2368 72.4978 29.2054C72.5618 29.331 72.7218 29.3937 72.8657 29.3467C73.0096 29.2996 73.0736 29.1426 73.0416 29.0014C72.7857 28.8915 72.5938 28.6875 72.4819 28.4364C72.7218 28.3108 73.0096 28.4991 73.1376 28.7346C73.2815 28.97 73.3455 29.2368 73.5694 29.3937C73.5694 29.174 73.6974 28.9386 73.9053 28.8287C73.8573 29.174 74.2251 29.5036 74.577 29.4251C74.657 29.6448 74.7209 29.8646 74.8009 30.0843C74.8009 30.1314 74.7849 30.1314 74.7689 30.1314Z" fill="#1EAF91"/>
<path d="M57.2894 43.3619C57.8332 43.3776 58.297 42.9538 58.313 42.4202C58.313 42.3731 58.313 42.3261 58.313 42.279L58.6968 41.9023C60.6001 43.6601 62.8871 44.7273 65.2702 45.1354L65.2542 46.8618L61.1438 46.8304V47.5052L58.5369 47.4895C57.6573 47.4895 56.9216 48.133 56.8736 48.9491H75.9218C75.8259 48.1958 75.1222 47.5994 74.2905 47.5994L71.6516 47.5837V46.9088L68.085 46.8775L68.101 45.2923C71.0758 45.1354 73.9866 43.9426 76.2577 41.6983C81.1677 36.8487 81.2477 28.9072 76.4976 23.8065L76.8814 23.4456C76.9294 23.4456 76.9774 23.4613 77.0254 23.4613C77.5692 23.4613 78.017 23.0218 78.017 22.4882C78.017 21.9546 77.5692 21.5151 77.0254 21.5151C76.4816 21.5151 76.0338 21.9546 76.0338 22.4882C76.0338 22.5981 76.0498 22.6922 76.0818 22.7864L73.7307 24.9836L74.4344 25.7056L75.2821 24.9208C79.3444 29.692 79.2965 36.6289 75.0422 40.7723C72.8511 42.9067 69.9403 43.8955 67.0134 43.7699C65.1102 43.6915 63.191 43.1265 61.4637 42.122C61.3837 42.0749 61.3198 42.0279 61.2398 41.9808C61.2238 41.9808 61.2238 41.9651 61.2238 41.9651C61.1598 41.918 61.0799 41.8866 61.0159 41.8395C60.9999 41.8238 60.9839 41.8238 60.9839 41.8081C60.9199 41.761 60.856 41.7297 60.792 41.6826C60.776 41.6669 60.76 41.6512 60.744 41.6512C60.68 41.6041 60.632 41.5727 60.5681 41.5256C60.5521 41.5099 60.5201 41.4942 60.5041 41.4785C60.4561 41.4472 60.3921 41.4001 60.3442 41.3687C60.3122 41.353 60.2962 41.3216 60.2642 41.3059C60.2162 41.2745 60.1682 41.2274 60.1202 41.196C60.0883 41.1647 60.0563 41.149 60.0243 41.1176C59.9763 41.0862 59.9443 41.0548 59.8963 41.0077C59.8644 40.9763 59.8164 40.9449 59.7844 40.9135C59.7684 40.9135 59.7684 40.8978 59.7524 40.8822L60.696 39.9719L59.9763 39.2656L57.6573 41.4629C57.5613 41.4315 57.4653 41.4158 57.3534 41.4001C56.8096 41.3844 56.3458 41.8081 56.3298 42.3417C56.2978 42.8911 56.7296 43.3462 57.2894 43.3619Z" fill="#19212C"/>
<path d="M10.9076 46.7208V51.0682H7.03714V46.6109C4.39821 46.2029 1.87124 45.12 0 43.5976L2.01518 39.6583C4.12632 41.4631 7.29304 42.6716 9.43616 42.6716C11.0835 42.6716 12.1071 42.0752 12.1071 40.9138C12.1071 37.3512 1.26349 39.4699 1.26349 32.3446C1.26349 29.2685 3.48658 27.1341 7.03714 26.4749V22.2217H10.9076V26.3336C13.3706 26.5848 15.7696 27.4009 17.5289 28.5152L15.5617 32.5173C13.3866 31.2774 10.6677 30.4142 8.98835 30.4142C7.64489 30.4142 6.73326 30.9007 6.73326 31.8738C6.73326 35.358 17.5769 33.3648 17.5769 40.647C17.5928 44.2097 14.746 46.2814 10.9076 46.7208Z" fill="#DC4938"/>
<path d="M29.7656 24.3086H44.0158C44.1598 24.9992 44.2237 25.6897 44.2237 26.396C44.2237 27.1493 44.1598 27.8712 44.0158 28.5618H34.8675V33.9136H42.1286C42.2725 34.6513 42.3365 35.3575 42.3365 36.0324C42.3365 36.77 42.2725 37.492 42.1286 38.1982H34.8675V44.7115H44.2717C44.4157 45.402 44.4796 46.0926 44.4796 46.7988C44.4796 47.5522 44.4157 48.2741 44.2717 48.9647H29.7656V24.3086V24.3086Z" fill="#EAB746"/>
<path d="M54.345 52.026C54.361 51.7121 54.1371 51.4453 53.8172 51.4296L49.7868 51.1314C49.7549 51.1314 49.7389 51.1314 49.7069 51.1314C49.5469 50.9273 49.339 50.739 49.0831 50.6291C48.2675 50.2525 47.2919 50.6134 46.908 51.4139C46.7641 51.7278 46.7321 52.073 46.7961 52.4026L43.1176 54.9608C43.0536 54.9137 42.9896 54.8824 42.9096 54.8353C42.094 54.4586 41.1184 54.8196 40.7345 55.62C40.6865 55.7142 40.6546 55.8083 40.6386 55.9182L36.0484 56.8285C35.9525 56.3419 35.6326 55.9025 35.1368 55.6828C34.561 55.416 33.9213 55.5258 33.4415 55.8868L29.811 53.6425C29.9869 52.9048 29.635 52.1358 28.8993 51.8062C28.0837 51.4296 27.1081 51.7905 26.7242 52.591C26.6922 52.638 26.6922 52.7008 26.6602 52.7636L23.0297 53.4855C22.7258 53.5483 22.5179 53.8465 22.5819 54.1447C22.6459 54.4429 22.9498 54.6469 23.2536 54.5842L26.7082 53.8936C26.8682 54.2546 27.1401 54.5528 27.5239 54.7254C28.0677 54.9765 28.6914 54.898 29.1552 54.5685L32.8337 56.8442C32.6898 57.5504 33.0576 58.2881 33.7454 58.6176C34.4971 58.9629 35.3607 58.6961 35.7925 58.0369L40.7665 57.0482C40.9264 57.3621 41.1823 57.6132 41.5342 57.7701C42.3499 58.1468 43.3255 57.7858 43.7093 56.9854C43.8852 56.6244 43.9012 56.2321 43.7893 55.8711L47.3878 53.3757C47.4838 53.4542 47.5797 53.5169 47.7077 53.564C48.5234 53.9407 49.499 53.5797 49.8828 52.7793C49.9628 52.6223 49.9948 52.4497 50.0108 52.2928L53.7212 52.5596C54.0411 52.5596 54.329 52.3241 54.345 52.026Z" fill="#19212C"/>
<path d="M50.281 41.5257C49.7692 41.5257 49.3054 40.9764 48.9536 39.9877C48.6177 39.0146 48.4258 37.7276 48.4258 36.3622C48.4258 34.9968 48.6177 33.6942 48.9536 32.7368C49.3054 31.748 49.7692 31.1987 50.281 31.1987C50.7928 31.1987 51.2566 31.748 51.6085 32.7368C51.9444 33.7098 52.1363 34.9968 52.1363 36.3622C52.1363 37.7276 51.9444 39.0303 51.6085 39.9877C51.2726 40.9764 50.7928 41.5257 50.281 41.5257ZM50.281 31.3086C50.0571 31.3086 49.8492 31.4341 49.6413 31.6853C49.4334 31.9364 49.2415 32.2973 49.0815 32.7525C48.7457 33.7099 48.5697 34.9811 48.5697 36.3465C48.5697 37.7119 48.7616 38.9832 49.0815 39.9406C49.2415 40.3957 49.4334 40.7567 49.6413 41.0078C49.8492 41.2589 50.0571 41.3845 50.281 41.3845C50.5049 41.3845 50.7129 41.2589 50.9208 41.0078C51.1287 40.7567 51.3206 40.3957 51.4805 39.9406C51.8164 38.9832 51.9923 37.7119 51.9923 36.3465C51.9923 34.9968 51.8004 33.7099 51.4805 32.7525C51.3206 32.2973 51.1287 31.9364 50.9208 31.6853C50.7288 31.4341 50.5049 31.3086 50.281 31.3086Z" fill="#DC4938"/>
<path d="M53.8206 39.2816C53.5647 39.2816 53.2768 39.2502 52.957 39.2031C51.9334 39.0148 50.6699 38.5596 49.4384 37.9005C48.2069 37.2413 47.1193 36.4723 46.3996 35.7189C45.6639 34.9499 45.376 34.3064 45.616 33.8827C45.8559 33.4589 46.5596 33.3334 47.6151 33.5217C48.6387 33.71 49.9022 34.1652 51.1337 34.8243C52.3652 35.4835 53.4528 36.2525 54.1725 37.0059C54.9082 37.7749 55.1961 38.4184 54.9562 38.8421C54.7962 39.1246 54.3964 39.2816 53.8206 39.2816ZM46.7675 33.5531C46.2397 33.5531 45.8878 33.6786 45.7439 33.9298C45.552 34.2907 45.8239 34.9028 46.5116 35.6091C47.2153 36.3467 48.2869 37.1157 49.5184 37.7592C50.7499 38.4184 51.9814 38.8735 52.989 39.0619C53.9646 39.2345 54.6363 39.1403 54.8442 38.7794C55.0361 38.4184 54.7642 37.8063 54.0765 37.1001C53.3728 36.3624 52.3012 35.5934 51.0697 34.9499C49.8382 34.2907 48.6067 33.8356 47.5991 33.6473C47.2793 33.5845 47.0074 33.5531 46.7675 33.5531Z" fill="#DC4938"/>
<path d="M46.7615 39.6263C46.2657 39.6263 45.9138 39.5008 45.7539 39.234C45.498 38.8259 45.7379 38.1667 46.4416 37.3663C47.1293 36.5816 48.1689 35.7655 49.3684 35.0435C50.568 34.3216 51.7995 33.8037 52.807 33.5682C53.8466 33.3328 54.5663 33.427 54.8222 33.8351C55.0781 34.2431 54.8382 34.9023 54.1345 35.7027C53.4468 36.4874 52.4072 37.3035 51.2077 38.0255C50.0082 38.7474 48.7767 39.2654 47.7691 39.5008C47.3852 39.5792 47.0494 39.6263 46.7615 39.6263ZM49.4004 35.0906L49.4324 35.1534C48.2489 35.8596 47.2093 36.6758 46.5376 37.4448C45.8819 38.1824 45.642 38.8102 45.8659 39.1555C46.0898 39.5008 46.7615 39.5792 47.7371 39.3595C48.7447 39.1241 49.9602 38.6062 51.1437 37.8999C52.3272 37.1937 53.3668 36.3776 54.0385 35.6085C54.6943 34.8709 54.9342 34.2431 54.7103 33.8978C54.4864 33.5526 53.8146 33.4741 52.839 33.6938C51.8314 33.9292 50.6159 34.4471 49.4324 35.1534L49.4004 35.0906Z" fill="#DC4938"/>
<path d="M46.9421 34.1016C47.2866 34.1016 47.5659 33.8276 47.5659 33.4895C47.5659 33.1515 47.2866 32.8774 46.9421 32.8774C46.5976 32.8774 46.3184 33.1515 46.3184 33.4895C46.3184 33.8276 46.5976 34.1016 46.9421 34.1016Z" fill="#DC4938"/>
<path d="M54.2331 36.0474C54.5776 36.0474 54.8569 35.7734 54.8569 35.4353C54.8569 35.0973 54.5776 34.8232 54.2331 34.8232C53.8886 34.8232 53.6094 35.0973 53.6094 35.4353C53.6094 35.7734 53.8886 36.0474 54.2331 36.0474Z" fill="#DC4938"/>
<path d="M49.1296 40.772C49.4741 40.772 49.7534 40.498 49.7534 40.1599C49.7534 39.8219 49.4741 39.5479 49.1296 39.5479C48.7851 39.5479 48.5059 39.8219 48.5059 40.1599C48.5059 40.498 48.7851 40.772 49.1296 40.772Z" fill="#DC4938"/>
<path d="M50.2824 35.1228C50.2664 35.1228 50.2344 35.1228 50.2184 35.1228C50.2024 35.1228 50.1705 35.1228 50.1545 35.1228C49.5147 35.1856 49.0349 35.7035 49.0349 36.347C49.0349 36.7393 49.2108 37.0846 49.4987 37.3043C49.5147 37.32 49.5307 37.3357 49.5627 37.3514C49.7066 37.4613 49.8826 37.5241 50.0585 37.5555C50.0585 37.5555 50.0585 37.5555 50.0745 37.5555C50.0905 37.5555 50.1065 37.5555 50.1225 37.5712C50.1385 37.5712 50.1385 37.5712 50.1545 37.5712C50.1705 37.5712 50.2024 37.5712 50.2184 37.5712C50.2344 37.5712 50.2664 37.5712 50.2824 37.5712C50.9701 37.5712 51.5459 37.0218 51.5459 36.3313C51.5459 35.6407 50.9861 35.1228 50.2824 35.1228ZM50.4263 37.0375V37.3357H50.1864V37.0375C50.0105 37.0062 49.8346 36.9434 49.7066 36.8335L49.8346 36.5824C49.9785 36.708 50.1864 36.7864 50.3304 36.7864C50.4583 36.7864 50.5383 36.7393 50.5383 36.6609C50.5383 36.4098 49.8026 36.551 49.8026 36.0645C49.8026 35.8605 49.9625 35.7035 50.2024 35.6721V35.3896H50.4423V35.6721C50.6023 35.6878 50.7622 35.7349 50.8742 35.8134L50.7462 36.0645C50.6023 35.986 50.4264 35.9232 50.3144 35.9232C50.2024 35.9232 50.1385 35.9546 50.1385 36.0331C50.1385 36.2842 50.8742 36.143 50.8742 36.6295C50.8742 36.8649 50.6822 37.0062 50.4263 37.0375ZM32.2577 16.0383L31.49 15.285C31.2981 15.0966 31.0262 15.0809 30.8663 15.2379L28.5312 17.5293C28.6112 17.4508 28.9951 17.749 29.3469 18.0943C29.3629 18.11 29.3629 18.11 29.3789 18.1257C29.7468 18.4866 30.0666 18.879 29.9867 18.9575L32.3217 16.6661C32.4816 16.4934 32.4497 16.2266 32.2577 16.0383Z" fill="#DC4938"/>
<path d="M29.381 18.1091C29.365 18.0934 29.365 18.0934 29.349 18.0777C28.9971 17.7324 28.6133 17.4342 28.5333 17.5127L24.5829 21.3892L20.1367 25.768C20.3286 26.0348 20.5525 26.3016 20.7765 26.537L20.7925 26.5527C21.0324 26.7881 21.2723 27.0235 21.5441 27.2276L25.4945 23.351L30.0047 18.9252C30.0687 18.8624 29.7488 18.47 29.381 18.1091Z" fill="#19212C"/>
<path d="M34.2728 15.8025C34.1928 15.5828 33.3772 15.0021 33.3772 15.0021C33.3772 15.0021 34.3368 15.2532 34.5767 15.1747C34.8166 15.0963 35.4083 14.2958 35.4083 14.2958C35.4083 14.2958 35.1524 15.2375 35.2324 15.4729C35.3124 15.7084 36.128 16.289 36.128 16.289C36.128 16.289 35.1365 16.0379 34.9285 16.1164C34.7206 16.1949 34.0969 16.9953 34.0969 16.9953C34.0969 16.9953 34.3528 16.0065 34.2728 15.8025ZM28.6111 11.5964C28.6111 11.5964 29.9066 12.13 30.2424 12.0672C30.5943 12.0044 31.5539 11 31.5539 11C31.5539 11 31.0101 12.3026 31.0741 12.6008C31.1381 12.899 32.1617 13.8878 32.1617 13.8878C32.1617 13.8878 30.8342 13.3542 30.5143 13.417C30.1945 13.4797 29.2029 14.4842 29.2029 14.4842C29.2029 14.4842 29.7466 13.2129 29.6827 12.8833C29.6187 12.5538 28.6111 11.5964 28.6111 11.5964ZM26.7559 14.8295C26.7559 14.8295 27.4436 15.0963 27.6355 15.0649C27.8114 15.0178 28.3232 14.4842 28.3232 14.4842C28.3232 14.4842 28.0513 15.1747 28.0833 15.3474C28.1153 15.5043 28.6751 16.0222 28.6751 16.0222C28.6751 16.0222 27.9554 15.7554 27.7954 15.7868C27.6195 15.8182 27.1077 16.3675 27.1077 16.3675C27.1077 16.3675 27.3796 15.6927 27.3476 15.5043C27.2996 15.3317 26.7559 14.8295 26.7559 14.8295Z" fill="#EAB746"/>
<path fill-rule="evenodd" clip-rule="evenodd" d="M25.6849 41.1178H25.0611V40.1761C25.0611 39.2187 24.1975 38.4497 23.1259 38.4497C22.0544 38.4497 21.1907 39.2187 21.1907 40.1761V41.1178H20.567C20.3271 41.1178 20.1191 41.2904 20.1191 41.5101V45.8889C20.1191 46.1086 20.3111 46.2813 20.567 46.2813H25.6689C25.9088 46.2813 26.1167 46.1086 26.1167 45.8889V41.5101C26.1167 41.2904 25.9248 41.1178 25.6849 41.1178ZM23.8296 45.0728H23.1099H22.3902L22.6941 43.8015C22.4382 43.676 22.2783 43.4406 22.2783 43.1581C22.2783 42.75 22.6461 42.4204 23.1099 42.4204C23.5737 42.4204 23.9416 42.75 23.9416 43.1581C23.9416 43.4406 23.7817 43.676 23.5258 43.8015L23.8296 45.0728ZM24.2135 41.1178H22.0544V40.1761C22.0544 39.6425 22.5342 39.203 23.1419 39.203C23.7337 39.203 24.2295 39.6425 24.2295 40.1761V41.1178H24.2135Z" fill="#1EAF91"/>
</g>
<defs>
<clipPath id="clip0_385_6125">
<rect width="80" height="70" fill="white"/>
</clipPath>
</defs>
</svg>