<svg width="56" height="70" viewBox="0 0 56 70" fill="none" xmlns="http://www.w3.org/2000/svg">
<path d="M39.8102 43.4208C39.8102 36.2728 34.0162 30.479 26.8696 30.479C19.7234 30.479 13.9297 36.2728 13.9297 43.4208C13.9297 48.7071 17.1042 53.2511 21.6487 55.2578C21.6211 55.4898 21.6052 55.7247 21.6052 55.9653C21.6052 59.1406 24.135 61.7128 27.2574 61.7128C30.3782 61.7128 32.9084 59.1406 32.9084 55.9653C32.9084 55.6058 32.8736 55.2549 32.8113 54.9127C36.9671 52.7611 39.8102 48.423 39.8102 43.4208Z" fill="white"/>
<path d="M26.8681 31.2039C20.1325 31.2039 14.6519 36.6846 14.6519 43.4208C14.6519 48.2548 17.5133 52.6422 21.9397 54.5938C22.2317 54.7243 22.4048 55.0288 22.3668 55.3448C22.341 55.5623 22.3277 55.7653 22.3277 55.9654C22.3277 58.7347 24.538 60.9878 27.2558 60.9878C29.9712 60.9878 32.1816 58.7347 32.1816 55.9654C32.1816 55.6609 32.154 55.3506 32.0977 55.0404C32.0406 54.7301 32.1952 54.4169 32.4768 54.269C36.552 52.1579 39.0833 48.0025 39.0833 43.4208C39.0833 36.6846 33.6034 31.2039 26.8681 31.2039ZM27.2558 62.4377C23.7388 62.4377 20.8783 59.535 20.8783 55.9654C20.8783 55.8784 20.8812 55.7914 20.8844 55.7015C16.2019 53.4194 13.2031 48.655 13.2031 43.4208C13.2031 35.8842 19.3332 29.7569 26.8681 29.7569C34.4032 29.7569 40.5318 35.8842 40.5318 43.4208C40.5318 48.3737 37.8883 52.88 33.597 55.31C33.6199 55.5304 33.6309 55.7479 33.6309 55.9654C33.6309 59.535 30.771 62.4377 27.2558 62.4377Z" fill="#201D18"/>
<path d="M36.7418 43.3224C36.7418 37.7838 32.2513 33.292 26.711 33.292C21.1713 33.292 16.6797 37.7838 16.6797 43.3224C16.6797 47.4227 19.14 50.946 22.6631 52.5003C22.6416 52.6801 22.6297 52.8628 22.6297 53.0484C22.6297 55.5103 24.5909 57.5024 27.01 57.5024C29.4303 57.5024 31.3924 55.5103 31.3924 53.0484C31.3924 52.77 31.3657 52.4974 31.317 52.2335C34.5385 50.5632 36.7418 47.2023 36.7418 43.3224Z" fill="#7C30B7"/>
<path d="M32.4022 65.0013H22.4297V58.4217H32.4022V65.0013Z" fill="white"/>
<path d="M23.1603 64.2793H31.6831V59.1466H23.1603V64.2793ZM32.4078 65.7263H22.4353C22.0349 65.7263 21.7109 65.4015 21.7109 65.0014V58.4217C21.7109 58.0215 22.0349 57.6996 22.4353 57.6996H32.4078C32.8071 57.6996 33.1316 58.0215 33.1316 58.4217V65.0014C33.1316 65.4015 32.8071 65.7263 32.4078 65.7263Z" fill="#201D18"/>
<path d="M26.8734 58.9259C26.4732 58.9259 26.1484 58.604 26.1484 58.2038V45.7086C26.1484 45.3084 26.4732 44.9836 26.8734 44.9836C27.2736 44.9836 27.5975 45.3084 27.5975 45.7086V58.2038C27.5975 58.604 27.2736 58.9259 26.8734 58.9259Z" fill="#201D18"/>
<path d="M30.3034 63.0176H24.9047C24.5048 63.0176 24.1797 62.6928 24.1797 62.2926C24.1797 61.8925 24.5048 61.5677 24.9047 61.5677H30.3034C30.7033 61.5677 31.0284 61.8925 31.0284 62.2926C31.0284 62.6928 30.7033 63.0176 30.3034 63.0176Z" fill="#201D18"/>
<path d="M23.8357 65.0008C23.8258 65.111 23.8203 65.2212 23.8203 65.3314C23.8203 67.3177 25.4318 68.9301 27.4188 68.9301C29.4067 68.9301 31.0176 67.3177 31.0176 65.3314C31.0176 65.2212 31.0124 65.111 31.0019 65.0008H23.8357Z" fill="white"/>
<path d="M24.5617 65.7258C24.7551 67.1235 25.9574 68.2051 27.4085 68.2051C28.8599 68.2051 30.0625 67.1235 30.2557 65.7258H24.5617ZM27.4085 69.6521C25.0251 69.6521 23.0859 67.715 23.0859 65.3314C23.0859 65.2009 23.092 65.0733 23.1042 64.9341C23.1379 64.5629 23.4505 64.2788 23.8254 64.2788H30.9917C31.3666 64.2788 31.6792 64.5629 31.7143 64.9341C31.7265 65.0733 31.7317 65.2009 31.7317 65.3314C31.7317 67.715 29.7931 69.6521 27.4085 69.6521Z" fill="#201D18"/>
<path d="M26.859 46.1869C24.5585 46.1869 22.6875 44.3165 22.6875 42.0141C22.6875 41.6168 23.0117 41.292 23.4128 41.292C23.8121 41.292 24.1366 41.6168 24.1366 42.0141C24.1366 43.5162 25.3574 44.737 26.859 44.737C28.3606 44.737 29.5817 43.5162 29.5817 42.0141C29.5817 41.6168 29.9062 41.292 30.3058 41.292C30.7057 41.292 31.0308 41.6168 31.0308 42.0141C31.0308 44.3165 29.1595 46.1869 26.859 46.1869Z" fill="#201D18"/>
<path d="M37.0212 30.9425C36.8365 30.9425 36.6515 30.87 36.5094 30.7308C36.226 30.4466 36.226 29.9885 36.5094 29.7043L39.8222 26.3927C40.1047 26.1085 40.5634 26.1085 40.8467 26.3927C41.1292 26.674 41.1292 27.135 40.8467 27.4163L37.5339 30.7308C37.3924 30.87 37.2071 30.9425 37.0212 30.9425Z" fill="#0693E3"/>
<path d="M26.8656 28.1331C26.4654 28.1331 26.1406 27.8083 26.1406 27.411L26.1415 22.7249C26.1415 22.3247 26.4654 22 26.8656 22C27.2658 22 27.5909 22.3247 27.5909 22.7249L27.5897 27.411C27.5897 27.8083 27.2658 28.1331 26.8656 28.1331Z" fill="#FEE13E"/>
<path d="M46.9014 40.257H42.2169C41.8161 40.257 41.4922 39.9322 41.4922 39.532C41.4922 39.1347 41.8161 38.81 42.2169 38.81H46.9014C47.3016 38.81 47.6263 39.1347 47.6263 39.532C47.6263 39.9322 47.3016 40.257 46.9014 40.257Z" fill="#FEE13E"/>
<path d="M11.4092 40.1117H6.72498C6.32508 40.1117 6 39.784 6 39.3867C6 38.9866 6.32508 38.6618 6.72498 38.6618H11.4092C11.8102 38.6618 12.1342 38.9866 12.1342 39.3867C12.1342 39.784 11.8102 40.1117 11.4092 40.1117Z" fill="#FEE13E"/>
<path d="M16.6078 30.9425C16.4225 30.9425 16.2367 30.87 16.0957 30.7308L12.7826 27.4163C12.4996 27.135 12.4996 26.674 12.7826 26.3927C13.0653 26.1085 13.5241 26.1085 13.8068 26.3927L17.12 29.7043C17.4033 29.9885 17.4033 30.4466 17.12 30.7308C16.9785 30.87 16.7931 30.9425 16.6078 30.9425Z" fill="#0693E3"/>
<g clip-path="url(#clip0_1033_12)">
<path d="M27.5 15C31.6421 15 35 11.6421 35 7.5C35 3.35786 31.6421 0 27.5 0C23.3579 0 20 3.35786 20 7.5C20 11.6421 23.3579 15 27.5 15Z" fill="#3C5A9A"/>
<path d="M29.9393 2.30212H28.2779C27.292 2.30212 26.1953 2.7168 26.1953 4.14598C26.2001 4.64396 26.1953 5.12088 26.1953 5.65762H25.0547V7.47267H26.2306V12.6979H28.3914V7.43819H29.8176L29.9466 5.65252H28.3542C28.3542 5.65252 28.3577 4.85819 28.3542 4.62751C28.3542 4.06273 28.9418 4.09507 28.9772 4.09507C29.2568 4.09507 29.8006 4.09589 29.9402 4.09507V2.30212H29.9393Z" fill="white"/>
</g>
<g clip-path="url(#clip1_1033_12)">
<circle cx="7.5" cy="18.5" r="7.5" fill="white"/>
<path d="M7.49998 11.0004C3.35783 11.0004 0 14.3582 0 18.5004C0 22.6425 3.35783 26.0003 7.49998 26.0003C11.6421 26.0003 15 22.6425 15 18.5004C15 14.3582 11.6421 11.0004 7.49998 11.0004ZM5.49897 22.1263H3.85228V16.8062H5.49897V22.1263ZM4.66778 16.1095C4.12998 16.1095 3.69401 15.67 3.69401 15.1279C3.69401 14.5857 4.13004 14.1462 4.66778 14.1462C5.20551 14.1462 5.64149 14.5857 5.64149 15.1279C5.64152 15.67 5.20554 16.1095 4.66778 16.1095ZM11.67 22.1263H10.0313V19.3337C10.0313 18.5678 9.74033 18.1402 9.13469 18.1402C8.47556 18.1402 8.13122 18.5855 8.13122 19.3337V22.1263H6.55185V16.8062H8.13122V17.5228C8.13122 17.5228 8.6063 16.644 9.73436 16.644C10.8625 16.644 11.67 17.3328 11.67 18.7577L11.67 22.1263Z" fill="url(#paint0_linear_1033_12)"/>
</g>
<g clip-path="url(#clip2_1033_12)">
<path d="M51.1964 25.9469C52.0884 25.9064 52.573 25.7579 52.8954 25.6322C53.3224 25.4659 53.6269 25.268 53.9475 24.9479C54.268 24.6278 54.4664 24.3233 54.6318 23.8962C54.7575 23.5739 54.9059 23.0893 54.9465 22.1973C54.9911 21.233 55 20.9437 55 18.5007C55 16.0577 54.9902 15.7688 54.9469 14.8036C54.9064 13.9116 54.757 13.4279 54.6322 13.1046C54.4659 12.6776 54.2675 12.3731 53.9479 12.0521C53.6278 11.732 53.3233 11.5332 52.8958 11.3678C52.5735 11.2421 52.0889 11.0936 51.1968 11.0531C50.2321 11.0089 49.9423 11 47.5002 11C45.0572 11 44.7683 11.0098 43.8032 11.0531C42.9111 11.0936 42.4274 11.243 42.1042 11.3678C41.6771 11.5332 41.3726 11.732 41.0521 12.0521C40.7316 12.3722 40.5341 12.6771 40.3678 13.1042C40.2421 13.4265 40.0936 13.9111 40.0531 14.8032C40.0089 15.7683 40 16.0572 40 18.5002C40 20.9423 40.0089 21.2321 40.0531 22.1973C40.0936 23.0893 40.243 23.5739 40.3678 23.8962C40.5341 24.3233 40.732 24.6278 41.0521 24.9479C41.3722 25.268 41.6771 25.4659 42.1042 25.6322C42.4265 25.7579 42.9111 25.9064 43.8032 25.9469C44.7674 25.9911 45.0572 26 47.5002 26C49.9423 26 50.2321 25.9915 51.1964 25.9469Z" fill="url(#paint1_radial_1033_12)"/>
<path d="M51.1964 25.9469C52.0884 25.9064 52.573 25.7579 52.8954 25.6322C53.3224 25.4659 53.6269 25.268 53.9475 24.9479C54.268 24.6278 54.4664 24.3233 54.6318 23.8962C54.7575 23.5739 54.9059 23.0893 54.9465 22.1973C54.9911 21.233 55 20.9437 55 18.5007C55 16.0577 54.9902 15.7688 54.9469 14.8036C54.9064 13.9116 54.757 13.4279 54.6322 13.1046C54.4659 12.6776 54.2675 12.3731 53.9479 12.0521C53.6278 11.732 53.3233 11.5332 52.8958 11.3678C52.5735 11.2421 52.0889 11.0936 51.1968 11.0531C50.2321 11.0089 49.9423 11 47.5002 11C45.0572 11 44.7683 11.0098 43.8032 11.0531C42.9111 11.0936 42.4274 11.243 42.1042 11.3678C41.6771 11.5332 41.3726 11.732 41.0521 12.0521C40.7316 12.3722 40.5341 12.6771 40.3678 13.1042C40.2421 13.4265 40.0936 13.9111 40.0531 14.8032C40.0089 15.7683 40 16.0572 40 18.5002C40 20.9423 40.0089 21.2321 40.0531 22.1973C40.0936 23.0893 40.243 23.5739 40.3678 23.8962C40.5341 24.3233 40.732 24.6278 41.0521 24.9479C41.3722 25.268 41.6771 25.4659 42.1042 25.6322C42.4265 25.7579 42.9111 25.9064 43.8032 25.9469C44.7674 25.9911 45.0572 26 47.5002 26C49.9423 26 50.2321 25.9915 51.1964 25.9469Z" fill="url(#paint2_radial_1033_12)"/>
<path d="M49.3393 18.5319C49.3393 17.5061 48.508 16.6742 47.4821 16.6742C46.4563 16.6742 45.6245 17.5061 45.6245 18.5319C45.6245 19.5578 46.4563 20.3896 47.4821 20.3896C48.508 20.3896 49.3393 19.5578 49.3393 18.5319ZM50.3436 18.5319C50.3436 20.1123 49.0625 21.3934 47.4821 21.3934C45.9017 21.3934 44.6207 20.1123 44.6207 18.5319C44.6207 16.9515 45.9017 15.6705 47.4821 15.6705C49.0625 15.6705 50.3435 16.9514 50.3435 18.5319H50.3436ZM45.1761 15.557C45.1761 15.6893 45.137 15.8186 45.0635 15.9286C44.9901 16.0386 44.8857 16.1243 44.7635 16.175C44.6413 16.2256 44.5069 16.2389 44.3772 16.2132C44.2474 16.1874 44.1283 16.1238 44.0347 16.0303C43.9411 15.9368 43.8774 15.8177 43.8516 15.688C43.8257 15.5583 43.8389 15.4238 43.8895 15.3016C43.94 15.1794 44.0257 15.0749 44.1356 15.0014C44.2456 14.9279 44.3748 14.8886 44.5071 14.8886H44.5074C44.6846 14.8887 44.8546 14.9591 44.98 15.0844C45.1054 15.2098 45.1759 15.3797 45.1761 15.557ZM49.7334 23.0679C50.2767 23.0431 50.572 22.9527 50.7683 22.8762C51.0285 22.7749 51.2141 22.6543 51.4093 22.4594C51.6044 22.2645 51.7253 22.079 51.8261 21.8188C51.9026 21.6227 51.9931 21.3273 52.0178 20.784C52.0448 20.1966 52.0502 20.0201 52.0502 18.532C52.0502 17.0439 52.0444 16.8679 52.0178 16.28C51.993 15.7367 51.9019 15.4419 51.8261 15.2452C51.7248 14.985 51.6042 14.7994 51.4093 14.6042C51.2144 14.409 51.0289 14.2882 50.7683 14.1874C50.5721 14.1109 50.2767 14.0204 49.7334 13.9957C49.146 13.9687 48.9696 13.9633 47.4821 13.9633C45.9947 13.9633 45.818 13.969 45.2301 13.9958C44.6868 14.0205 44.392 14.1117 44.1953 14.1875C43.9351 14.2883 43.7495 14.4094 43.5543 14.6043C43.3591 14.7992 43.2388 14.9851 43.1375 15.2453C43.061 15.4414 42.9705 15.7368 42.9458 16.2801C42.9188 16.868 42.9134 17.044 42.9134 18.5321C42.9134 20.0202 42.9188 20.1962 42.9458 20.7841C42.9705 21.3274 43.0615 21.6227 43.1375 21.8189C43.2388 22.0791 43.3594 22.2647 43.5543 22.4595C43.7492 22.6542 43.9351 22.775 44.1953 22.8763C44.3914 22.9528 44.6868 23.0433 45.2301 23.068C45.8175 23.095 45.994 23.1004 47.4821 23.1004C48.9703 23.1004 49.1462 23.095 49.7334 23.068V23.0679ZM49.7796 12.9931C50.3728 13.0201 50.7782 13.1142 51.1322 13.2519C51.4986 13.3942 51.8092 13.585 52.1193 13.8947C52.4295 14.2044 52.6198 14.515 52.7621 14.8818C52.8999 15.2361 52.9939 15.6412 53.0209 16.2345C53.0484 16.8286 53.0547 17.0186 53.0547 18.5319C53.0547 20.0452 53.0484 20.2352 53.0209 20.8294C52.9939 21.4226 52.8999 21.8278 52.7621 22.182C52.6198 22.5484 52.4294 22.8596 52.1193 23.1691C51.8092 23.4787 51.4991 23.6692 51.1322 23.8119C50.7775 23.9496 50.3728 24.0437 49.7796 24.0707C49.1851 24.0977 48.9955 24.1045 47.4821 24.1045C45.9688 24.1045 45.7788 24.0982 45.1847 24.0707C44.5914 24.0437 44.1863 23.9496 43.8321 23.8119C43.4656 23.6692 43.1551 23.4788 42.8449 23.1691C42.5348 22.8595 42.3448 22.5484 42.2021 22.182C42.0644 21.8278 41.9699 21.4226 41.9433 20.8294C41.9163 20.2348 41.91 20.0452 41.91 18.5319C41.91 17.0186 41.9163 16.8286 41.9433 16.2345C41.9703 15.6412 42.0644 15.2359 42.2021 14.8818C42.3448 14.5154 42.5353 14.2048 42.8449 13.8947C43.1546 13.5845 43.4656 13.3942 43.8316 13.2519C44.1863 13.1142 44.5914 13.0197 45.1842 12.9931C45.7785 12.9659 45.9684 12.9594 47.4815 12.9594C48.9946 12.9594 49.1849 12.9656 49.7794 12.9931" fill="white"/>
</g>
<defs>
<linearGradient id="paint0_linear_1033_12" x1="2.19669" y1="13.1971" x2="12.8033" y2="23.8036" gradientUnits="userSpaceOnUse">
<stop stop-color="#2489BE"/>
<stop offset="1" stop-color="#0575B3"/>
</linearGradient>
<radialGradient id="paint1_radial_1033_12" cx="0" cy="0" r="1" gradientUnits="userSpaceOnUse" gradientTransform="translate(54.0292 25.6714) rotate(180) scale(19.0444)">
<stop offset="0.09" stop-color="#FA8F21"/>
<stop offset="0.78" stop-color="#D82D7E"/>
</radialGradient>
<radialGradient id="paint2_radial_1033_12" cx="0" cy="0" r="1" gradientUnits="userSpaceOnUse" gradientTransform="translate(44.61 25.1897) rotate(180) scale(16.7593)">
<stop offset="0.64" stop-color="#8C3AAA" stop-opacity="0"/>
<stop offset="1" stop-color="#8C3AAA"/>
</radialGradient>
<clipPath id="clip0_1033_12">
<rect width="15" height="15" fill="white" transform="translate(20)"/>
</clipPath>
<clipPath id="clip1_1033_12">
<rect width="15" height="15" fill="white" transform="translate(0 11)"/>
</clipPath>
<clipPath id="clip2_1033_12">
<rect width="15" height="15" fill="white" transform="matrix(-1 0 0 1 55 11)"/>
</clipPath>
</defs>
</svg>