<svg width="67" height="70" viewBox="0 0 67 70" fill="none" xmlns="http://www.w3.org/2000/svg">
<g clip-path="url(#clip0_1000_208)">
<path d="M55.3933 13.1729H3.13547C1.4038 13.1729 0 14.5766 0 16.3083V57.0687C0 58.8003 1.4038 60.2041 3.13547 60.2041H55.3933C57.125 60.2041 58.5288 58.8003 58.5288 57.0687V16.3083C58.5288 14.5766 57.125 13.1729 55.3933 13.1729Z" fill="#7C30B7"/>
<path d="M56.4419 16.3083V53.9333H2.09375V16.3083C2.09375 16.0311 2.20386 15.7653 2.39987 15.5693C2.59587 15.3733 2.86171 15.2632 3.13891 15.2632H55.3968C55.6739 15.2632 55.9398 15.3733 56.1358 15.5693C56.3318 15.7653 56.4419 16.0311 56.4419 16.3083Z" fill="white"/>
<path d="M36.5775 68.5652H21.9453L22.9905 60.2041H35.5324L36.5775 68.5652Z" fill="#7C30B7"/>
<path d="M40.7646 69.6104H17.7711C17.4939 69.6104 17.2281 69.5003 17.0321 69.3043C16.8361 69.1083 16.7259 68.8425 16.7259 68.5653C16.7259 68.2881 16.8361 68.0222 17.0321 67.8262C17.2281 67.6302 17.4939 67.5201 17.7711 67.5201H40.7646C41.0418 67.5201 41.3076 67.6302 41.5036 67.8262C41.6996 68.0222 41.8097 68.2881 41.8097 68.5653C41.8097 68.8425 41.6996 69.1083 41.5036 69.3043C41.3076 69.5003 41.0418 69.6104 40.7646 69.6104ZM56.4419 16.3083V19.4437H2.09375V16.3083C2.09375 16.0311 2.20386 15.7653 2.39987 15.5693C2.59587 15.3733 2.86171 15.2632 3.13891 15.2632H55.3968C55.6739 15.2632 55.9398 15.3733 56.1358 15.5693C56.3318 15.7653 56.4419 16.0311 56.4419 16.3083Z" fill="#7C30B7"/>
<path d="M15.6797 15.2632H29.2667C30.0983 15.2632 30.8958 15.5935 31.4838 16.1815C32.0719 16.7695 32.4022 17.567 32.4022 18.3986V19.4437H15.6797V15.2632Z" fill="#7C30B7"/>
<path d="M3.13891 15.2632H15.6808C16.5124 15.2632 17.3099 15.5935 17.8979 16.1815C18.4859 16.7695 18.8163 17.567 18.8163 18.3986V20.4889H2.09375V16.3083C2.09375 16.0311 2.20386 15.7653 2.39987 15.5693C2.59587 15.3733 2.86171 15.2632 3.13891 15.2632Z" fill="white"/>
<path d="M4.5339 25.4829C5.06267 23.4679 6.73529 21.9216 8.56299 21.7578C10.3906 21.5941 12.2551 22.8235 13.055 24.7193C14.0278 24.7087 14.9858 25.3496 15.4582 26.3266C15.9306 27.3036 15.8972 28.5762 15.3747 29.5164C16.5324 29.7553 17.5721 30.6607 18.0844 31.878C18.5968 33.0946 18.5694 34.5913 18.0117 35.7803C19.2863 35.0103 20.9165 35.0798 22.1392 35.9576C23.362 36.8353 24.1326 38.4879 24.0897 40.142C24.8836 38.6617 26.4058 37.7393 27.919 37.8215C29.4323 37.903 30.8745 38.9864 31.5479 40.5462C32.2583 38.0193 34.1521 35.9795 36.3937 35.328C38.6352 34.6764 41.1493 35.4336 42.8266 37.2656C45.3496 37.735 47.188 40.9907 46.5306 43.8245C47.8936 45.1652 48.5903 47.3447 48.3051 49.3767C48.02 51.4086 46.7639 53.2237 45.1045 54L1.70019 53.9667L-2 34.2829L4.5339 25.4829Z" fill="#D1D1FF"/>
<path d="M31.5519 39.6852C30.8785 38.1254 29.4362 37.0421 27.923 36.9605C27.8603 36.957 27.7983 36.9556 27.7357 36.9556C26.2857 36.9556 24.8547 37.8617 24.0936 39.2811C24.1366 37.627 23.366 35.9743 22.1432 35.0966C21.4859 34.6251 20.7111 34.3869 19.9369 34.3869C19.2706 34.3869 18.6049 34.5634 18.0156 34.9193C18.1797 34.5705 18.2972 34.1947 18.3693 33.8076C24.1945 31.0078 30.1114 26.3519 37.1885 18.4409L38.2479 19.5668C36.2324 22.1107 33.4361 24.651 30.2021 27.9542L35.1593 25.5528C34.5515 26.7496 33.6664 28.4257 33.1701 29.1439C34.3124 28.5171 36.1507 27.1381 36.7597 26.4065C36.7597 27.4274 35.7254 29.134 35.2745 30.0663C37.6084 27.6919 39.7563 24.8545 40.7626 22.2376L41.801 23.3408C40.3468 26.9602 38.6791 30.7207 36.842 34.3571C36.6929 34.3876 36.5443 34.4245 36.3976 34.467C34.1561 35.1186 32.2623 37.1583 31.5519 39.6852Z" fill="#FFF6E9"/>
<path d="M44.4401 49.3741H27.2445C28.1386 48.3426 29.0184 47.2238 29.8785 46.0383C29.9023 46.0901 29.9256 46.1433 29.9477 46.1964C29.9876 46.049 30.0318 45.9029 30.0795 45.759C30.8996 44.6154 31.7019 43.4101 32.4851 42.1573C33.1346 41.6142 33.8629 41.2065 34.6329 40.974C35.1501 40.8173 35.6827 40.7414 36.2148 40.7414C37.9129 40.7414 39.6146 41.5121 40.847 42.9053C43.2591 43.3676 45.0222 46.5602 44.4401 49.3741ZM6.91406 37.2872V27.6145C7.18731 27.5194 7.46854 27.4571 7.75365 27.4301C7.85982 27.4202 7.96659 27.4152 8.07336 27.4152C9.73274 27.4152 11.3671 28.6063 12.0918 30.3873C12.1001 30.3873 12.1085 30.3873 12.1168 30.3873C13.0479 30.3873 13.9611 31.0247 14.4126 31.9925C14.8683 32.9695 14.8349 34.2414 14.3297 35.1822C14.4812 35.2149 14.6309 35.2588 14.7771 35.3148C12.2111 36.2358 9.62 36.854 6.91406 37.2872Z" fill="#F6F6FF"/>
<path d="M29.8748 46.0378C29.1996 44.5638 27.8516 43.5521 26.4398 43.4748C26.3807 43.4713 26.3217 43.4699 26.2626 43.4699C24.8603 43.4699 23.4753 44.3781 22.7387 45.7989C22.781 44.1448 22.0378 42.4929 20.8568 41.6166C20.2234 41.1458 19.476 40.9083 18.7292 40.9083C18.0844 40.9083 17.4403 41.0855 16.8694 41.4429C17.4086 40.2539 17.4367 38.7565 16.9428 37.5406C16.5151 36.4891 15.7075 35.6702 14.7734 35.3143C15.9765 34.8826 17.1736 34.3841 18.3749 33.807C18.3027 34.1941 18.1852 34.5699 18.0212 34.9187C18.6105 34.5628 19.2762 34.3863 19.9424 34.3863C20.7167 34.3863 21.4915 34.6245 22.1488 35.096C23.3715 35.9737 24.1422 37.6263 24.0992 39.2804C24.8603 37.861 26.2913 36.9549 27.7413 36.9549C27.8039 36.9549 27.8659 36.9564 27.9286 36.9599C29.4418 37.0414 30.8841 38.1248 31.5575 39.6846C32.2679 37.1577 34.1617 35.1179 36.4032 34.4664C36.5499 34.4238 36.6985 34.387 36.8476 34.3565C35.4793 37.0627 34.0179 39.7009 32.4814 42.1568C31.4119 43.0516 30.5554 44.3129 30.0759 45.7585C30.009 45.8521 29.9422 45.945 29.8748 46.0378Z" fill="#F1E8E9"/>
<path d="M27.2445 49.3741H10.3644C8.45928 49.3741 6.91406 47.5371 6.91406 45.2719V37.2872C9.62 36.854 12.2111 36.2358 14.7771 35.3148C15.7111 35.6707 16.5188 36.4896 16.9464 37.5411C17.4403 38.757 17.4123 40.2544 16.8731 41.4433C17.4439 41.086 18.0881 40.9088 18.7329 40.9088C19.4796 40.9088 20.227 41.1463 20.8605 41.6171C22.0415 42.4934 22.7847 44.1453 22.7423 45.7994C23.479 44.3786 24.864 43.4704 26.2663 43.4704C26.3253 43.4704 26.3844 43.4718 26.4434 43.4753C27.8553 43.5526 29.2033 44.5643 29.8785 46.0383C29.0184 47.2238 28.1386 48.3426 27.2445 49.3741ZM30.0795 45.759C30.5591 44.3134 31.4156 43.0521 32.4851 42.1573C31.7019 43.4101 30.8996 44.6154 30.0795 45.759Z" fill="#FCF3E9"/>
<path d="M38.9743 18.6236C36.932 21.4957 33.8518 24.2431 30.2188 27.954L35.176 25.5526C34.5682 26.7494 33.683 28.4254 33.1868 29.1436C34.329 28.5169 36.1673 27.1379 36.7763 26.4062C36.7763 27.4272 35.7421 29.1337 35.2911 30.066C37.9353 27.3761 40.3408 24.0921 41.1174 21.2079L38.9743 18.6236Z" fill="#FEE13E"/>
<path d="M40.684 20.7031L39.3359 19.0781C39.4051 18.9753 39.4725 18.8718 39.5381 18.769L40.7573 20.433C40.7347 20.5223 40.7102 20.6124 40.684 20.7031Z" fill="white"/>
<path d="M37.3031 26.2987C37.5727 25.6833 38.1865 24.5539 38.1954 23.8867C37.8364 24.3724 36.7591 25.2969 36.0917 25.7209C36.3858 25.2451 36.913 24.1384 37.2757 23.3479L34.3828 24.9793C36.4037 22.6417 38.131 20.8735 39.3341 19.0783L40.6821 20.7033C40.1459 22.534 38.7848 24.5915 37.3031 26.2987Z" fill="#FFC77A"/>
<path d="M20.7728 28.5237C20.7889 28.9682 20.7728 29.7176 20.3994 29.9743C19.7767 30.4025 19.287 29.3617 19.058 28.8392C18.7854 28.2138 18.8552 27.4389 19.4719 27.161C20.2867 26.793 20.743 27.6956 20.7728 28.5237Z" fill="#D1D1FF"/>
<path d="M50.3041 42.0027C50.3202 42.4465 50.3041 43.1959 49.9307 43.4533C49.308 43.8815 48.8183 42.8407 48.5892 42.3175C48.3166 41.6928 48.3864 40.9179 49.0032 40.6393C49.818 40.272 50.2743 41.1746 50.3041 42.0027Z" fill="#D1D1FF"/>
<path d="M17.9969 23.5021C17.9969 23.8452 17.7631 24.1224 17.475 24.1224C17.1869 24.1224 16.9531 23.8452 16.9531 23.5021C16.9531 23.1596 17.1869 22.8817 17.475 22.8817C17.7631 22.8817 17.9969 23.1596 17.9969 23.5021Z" fill="#D1D1FF"/>
<path d="M44.7921 34.6986C44.7921 35.2204 44.4366 35.6429 43.9976 35.6429C43.5586 35.6429 43.2031 35.2204 43.2031 34.6986C43.2031 34.1767 43.5586 33.7542 43.9976 33.7542C44.4366 33.7542 44.7921 34.1767 44.7921 34.6986Z" fill="#D1D1FF"/>
<path d="M46.802 4.5445C43.7815 7.18865 38.5719 5.36644 36.9531 7.47734L41.5787 11.1403L46.802 4.5445Z" fill="#13B5FF"/>
<path d="M36.9502 7.47716C36.7187 8.09331 36.8446 8.78642 37.277 9.28208L40.5546 13.0363L41.5758 11.1401L36.9502 7.47716Z" fill="#D1D1FF"/>
<path d="M53.653 9.96569C51.7717 13.5117 54.7391 18.1648 53.0553 20.2244L48.4297 16.5614L53.653 9.96569Z" fill="#13B5FF"/>
<path d="M53.042 20.2239C52.4956 20.5902 51.7918 20.6272 51.2102 20.3194L46.8047 17.9896L48.4163 16.561L53.042 20.2239Z" fill="#D1D1FF"/>
<path d="M55.4816 4.3546C54.906 10.8716 50.0913 16.952 44.2429 20.3298L38.9141 16.114C41.1502 9.07804 45.3148 4.04384 51.8908 1.51123L55.4816 4.3546Z" fill="#C5C5FF"/>
<path d="M38.9057 16.1143L36.5938 17.7146L43.2056 22.9504L44.2345 20.3301L38.9057 16.1143Z" fill="#7C30B7"/>
<path d="M52.2799 8.68778C51.4318 9.75903 49.8762 9.93977 48.8055 9.09159C47.7342 8.24341 47.5535 6.68782 48.4017 5.61715C49.2499 4.54649 50.8055 4.36576 51.8761 5.21334C52.9474 6.06152 53.1281 7.61711 52.2799 8.68778Z" fill="white"/>
<path d="M49.7973 5.62816L49.7489 5.4874C49.8957 5.4361 50.049 5.40508 50.2046 5.39435L50.2154 5.54287C50.0728 5.55301 49.9321 5.58164 49.7973 5.62816ZM51.0445 5.70749C50.9168 5.64367 50.7808 5.59774 50.6413 5.56971L50.6699 5.42358C50.8226 5.454 50.9711 5.5041 51.1107 5.57389L51.0445 5.70749ZM49.0994 6.10414L48.9861 6.00752C49.0875 5.88882 49.2044 5.78384 49.3326 5.69616L49.4167 5.81963C49.2992 5.89956 49.1924 5.99559 49.0994 6.10414ZM51.6767 6.26817C51.5986 6.14948 51.5049 6.04092 51.3976 5.94608L51.4966 5.83455C51.6135 5.93833 51.7161 6.05643 51.8014 6.18646L51.6767 6.26817ZM48.7373 6.86823L48.5906 6.84198C48.618 6.68809 48.6658 6.53898 48.7326 6.39821L48.8674 6.46203C48.8065 6.59086 48.7624 6.72746 48.7373 6.86823ZM51.938 7.07222C51.9308 6.92907 51.9046 6.7883 51.861 6.6529L52.0024 6.60637C52.0507 6.7543 52.0788 6.90819 52.0871 7.06446L51.938 7.07222ZM48.6717 7.76173C48.618 7.6156 48.584 7.4629 48.5703 7.30722L48.7188 7.2941C48.7314 7.43666 48.7624 7.57623 48.8113 7.70984L48.6717 7.76173ZM51.8903 7.96692L51.7584 7.89773C51.8241 7.77128 51.873 7.63647 51.9034 7.4969L52.0489 7.52911C52.0155 7.68121 51.9624 7.82854 51.8903 7.96692ZM49.2062 8.51388C49.0851 8.41487 48.9783 8.30034 48.8888 8.17389L49.0099 8.0874C49.0922 8.20312 49.19 8.3081 49.301 8.39876L49.2062 8.51388ZM51.3737 8.57114L51.2854 8.45125C51.3994 8.36655 51.5026 8.26695 51.5914 8.15481L51.7083 8.24726C51.6111 8.37014 51.499 8.47869 51.3737 8.57114ZM50.0478 8.89383C49.8933 8.86938 49.743 8.82465 49.6016 8.76023L49.6631 8.62423C49.7925 8.68328 49.9297 8.72443 50.071 8.7465L50.0478 8.89383ZM50.513 8.90576L50.4975 8.75724C50.6395 8.74233 50.7785 8.70833 50.9121 8.65703L50.9657 8.79601C50.8208 8.85208 50.6681 8.88906 50.513 8.90576Z" fill="#9192FF"/>
<path d="M38.1291 22.6651L38.011 22.5715C37.838 22.4349 37.8088 22.1814 37.9454 22.0084L42.5841 16.1505C42.7207 15.9775 42.9748 15.9483 43.1478 16.0854L43.2653 16.1785C43.4383 16.3157 43.4681 16.5692 43.3309 16.7422L38.6927 22.5995C38.5556 22.7725 38.3021 22.8023 38.1291 22.6651Z" fill="#1B1B43"/>
<path d="M56.0008 3.86238e-05L51.8828 1.51149L55.4736 4.35486L56.0008 3.86238e-05Z" fill="#13B5FF"/>
<path d="M62.7113 34.0757H48.0791C45.7702 34.0757 43.8984 35.9474 43.8984 38.2562V65.4298C43.8984 67.7387 45.7702 69.6104 48.0791 69.6104H62.7113C65.0202 69.6104 66.8919 67.7387 66.8919 65.4298V38.2562C66.8919 35.9474 65.0202 34.0757 62.7113 34.0757Z" fill="#FEE13E"/>
<path d="M64.7972 38.2562V65.4298C64.7972 65.9841 64.577 66.5158 64.185 66.9078C63.793 67.2998 63.2613 67.52 62.7069 67.52H48.0747C47.5203 67.52 46.9886 67.2998 46.5966 66.9078C46.2046 66.5158 45.9844 65.9841 45.9844 65.4298V38.2562C45.9844 37.7018 46.2046 37.1701 46.5966 36.7781C46.9886 36.3861 47.5203 36.1659 48.0747 36.1659C49.5693 36.1659 50.165 36.0509 50.4576 36.7407L50.9175 37.6813C51.0052 37.8553 51.1397 38.0013 51.3059 38.1028C51.4721 38.2044 51.6634 38.2575 51.8582 38.2562H58.9234C59.1182 38.2575 59.3095 38.2044 59.4757 38.1028C59.6419 38.0013 59.7764 37.8553 59.8641 37.6813L60.3239 36.7407C60.4116 36.5668 60.5461 36.4208 60.7123 36.3192C60.8785 36.2176 61.0698 36.1645 61.2646 36.1659H62.7069C63.2613 36.1659 63.793 36.3861 64.185 36.7781C64.577 37.1701 64.7972 37.7018 64.7972 38.2562Z" fill="white"/>
<path d="M61.6652 65.4296H49.1233C48.8461 65.4296 48.5802 65.3195 48.3842 65.1235C48.1882 64.9275 48.0781 64.6617 48.0781 64.3845C48.0781 64.1073 48.1882 63.8415 48.3842 63.6455C48.5802 63.4495 48.8461 63.3394 49.1233 63.3394H61.6652C61.9424 63.3394 62.2082 63.4495 62.4042 63.6455C62.6002 63.8415 62.7103 64.1073 62.7103 64.3845C62.7103 64.6617 62.6002 64.9275 62.4042 65.1235C62.2082 65.3195 61.9424 65.4296 61.6652 65.4296Z" fill="#F3F3F3"/>
<path d="M51.0367 48.5651C50.2865 49.2563 49.7375 50.1378 49.4479 51.1159H49.0469C49.1855 50.015 49.5976 48.9662 50.2456 48.0654L51.0367 48.5651Z" fill="#7C30B7"/>
<path opacity="0.6" d="M51.0367 48.5651C50.2865 49.2563 49.7375 50.1378 49.4479 51.1159H49.0469C49.1855 50.015 49.5976 48.9662 50.2456 48.0654L51.0367 48.5651Z" fill="white"/>
<path d="M53.3562 47.2527C52.4882 47.4996 51.6918 47.9504 51.0333 48.5675L50.2422 48.0657C50.8879 47.1623 51.7379 46.4242 52.7229 45.9115L53.3562 47.2527Z" fill="#7C30B7"/>
<path opacity="0.5" d="M53.3562 47.2527C52.4882 47.4996 51.6918 47.9504 51.0333 48.5675L50.2422 48.0657C50.8879 47.1623 51.7379 46.4242 52.7229 45.9115L53.3562 47.2527Z" fill="white"/>
<path d="M55.8209 45.1729L55.6258 47.1298C55.3458 47.081 55.062 47.0568 54.7777 47.0575C54.2985 47.0579 53.8215 47.1235 53.3599 47.2525L52.7266 45.9157C53.653 45.4303 54.6829 45.1755 55.7288 45.1729H55.8209Z" fill="#7C30B7"/>
<path opacity="0.4" d="M55.8209 45.1729L55.6258 47.1298C55.3458 47.081 55.062 47.0568 54.7777 47.0575C54.2985 47.0579 53.8215 47.1235 53.3599 47.2525L52.7266 45.9157C53.653 45.4303 54.6829 45.1755 55.7288 45.1729H55.8209Z" fill="white"/>
<path d="M58.7522 46.0034L57.4746 47.8771C56.9201 47.4958 56.2887 47.2407 55.625 47.1298L55.82 45.1729C56.8544 45.1802 57.8676 45.4672 58.7522 46.0034Z" fill="#7C30B7"/>
<path opacity="0.3" d="M58.7522 46.0034L57.4746 47.8771C56.9201 47.4958 56.2887 47.2407 55.625 47.1298L55.82 45.1729C56.8544 45.1802 57.8676 45.4672 58.7522 46.0034Z" fill="white"/>
<path d="M60.7778 48.2124L58.7836 49.2796C58.4521 48.7224 58.0034 48.2439 57.4688 47.8771L58.7464 46.0034C59.6159 46.5363 60.3195 47.3013 60.7778 48.2124Z" fill="#7C30B7"/>
<path opacity="0.2" d="M60.7778 48.2124L58.7836 49.2796C58.4521 48.7224 58.0034 48.2439 57.4688 47.8771L58.7464 46.0034C59.6159 46.5363 60.3195 47.3013 60.7778 48.2124Z" fill="white"/>
<path d="M61.3584 51.2585L59.408 51.2366C59.347 50.5458 59.1329 49.8773 58.7812 49.2796L60.7755 48.2124C61.243 49.1559 61.4446 50.209 61.3584 51.2585Z" fill="#7C30B7"/>
<path opacity="0.1" d="M61.3584 51.2585L59.408 51.2366C59.347 50.5458 59.1329 49.8773 58.7812 49.2796L60.7755 48.2124C61.243 49.1559 61.4446 50.209 61.3584 51.2585Z" fill="white"/>
<path d="M61.3572 51.3155C61.3583 51.3235 61.3583 51.3316 61.3572 51.3396C61.2784 52.0254 61.1036 52.6967 60.8378 53.3338L59.2578 52.9766L59.3849 52.3739C59.3959 52.295 59.4068 52.2161 59.4134 52.1373V52.089C59.4386 51.8054 59.4386 51.5202 59.4134 51.2366L61.3638 51.2585C61.3638 51.2716 61.3638 51.2804 61.3638 51.2914C61.3628 51.2997 61.3606 51.3078 61.3572 51.3155Z" fill="#7C30B7"/>
<path d="M49.2831 53.2089L49.167 53.2352C49.1297 53.084 49.099 52.9306 49.0727 52.775C48.9988 52.3003 48.9812 51.8185 49.0201 51.3396V51.3155C49.0192 51.3075 49.0192 51.2994 49.0201 51.2914C49.0201 51.2322 49.0311 51.1709 49.0399 51.1117H49.4409C49.3479 51.4294 49.2848 51.7552 49.2524 52.0847C49.2524 52.0847 49.2524 52.1 49.2524 52.1088C49.2524 52.1176 49.2524 52.1241 49.2524 52.1329C49.2379 52.3276 49.2342 52.5229 49.2415 52.718C49.2502 52.8868 49.2634 53.0489 49.2831 53.2089Z" fill="#7C30B7"/>
<path opacity="0.7" d="M49.2831 53.2089L49.167 53.2352C49.1297 53.084 49.099 52.9306 49.0727 52.775C48.9988 52.3003 48.9812 51.8185 49.0201 51.3396V51.3155C49.0192 51.3075 49.0192 51.2994 49.0201 51.2914C49.0201 51.2322 49.0311 51.1709 49.0399 51.1117H49.4409C49.3479 51.4294 49.2848 51.7552 49.2524 52.0847C49.2524 52.0847 49.2524 52.1 49.2524 52.1088C49.2524 52.1176 49.2524 52.1241 49.2524 52.1329C49.2379 52.3276 49.2342 52.5229 49.2415 52.718C49.2502 52.8868 49.2634 53.0489 49.2831 53.2089Z" fill="white"/>
<path d="M61.2296 52.8867L61.0631 53.2987L60.7256 53.2242L57.5809 52.512L56.2266 52.2052C56.3206 52.0834 56.3986 51.9501 56.4589 51.8086C56.5277 51.6432 56.5692 51.4678 56.5816 51.2892L59.5838 52.3213L61.2296 52.8867Z" fill="#FEE13E"/>
<path d="M56.5791 51.2935C56.5539 51.6272 56.4304 51.946 56.2241 52.2095L55.0078 51.9334L55.3913 50.8859L56.5791 51.2935Z" fill="#263238"/>
<path d="M56.5829 51.2935C56.5577 51.6272 56.4342 51.946 56.2279 52.2095C56.0769 52.4022 55.8873 52.5612 55.6712 52.6762C54.8889 53.0948 53.9663 52.8318 53.6135 52.0846C53.4516 51.6999 53.4416 51.2682 53.5856 50.8765C53.7296 50.4849 54.0168 50.1624 54.3892 49.9742C55.1716 49.5557 56.0942 49.8208 56.4492 50.5659C56.5557 50.7929 56.6017 51.0435 56.5829 51.2935Z" fill="#7C30B7"/>
<path d="M0 23H2L1.95429 55H0V23Z" fill="#7C30B7"/>
</g>
<defs>
<clipPath id="clip0_1000_208">
<rect width="66.89" height="70" fill="white"/>
</clipPath>
</defs>
</svg>